<svg width="375" height="812" viewBox="0 0 375 812" fill="none" xmlns="http://www.w3.org/2000/svg">
<path fill-rule="evenodd" clip-rule="evenodd" d="M447.102 732.077C380.836 731.033 326.271 783.906 325.227 850.172C324.184 916.438 377.057 971.003 443.322 972.047C509.588 973.091 564.154 920.218 565.198 853.952C566.241 787.686 513.368 733.121 447.102 732.077Z" fill="#92E3A9"/>
<path opacity="0.35" fill-rule="evenodd" clip-rule="evenodd" d="M475.264 658.511C359.299 656.685 263.809 749.212 261.983 865.178C260.156 981.143 352.684 1076.63 468.649 1078.46C584.615 1080.29 680.104 987.758 681.93 871.793C683.757 755.827 591.229 660.338 475.264 658.511Z" stroke="#92E3A9" stroke-width="1.5"/>
<path opacity="0.35" fill-rule="evenodd" clip-rule="evenodd" d="M505.332 590.977C339.667 588.367 203.254 720.55 200.644 886.214C198.035 1051.88 330.217 1188.29 495.882 1190.9C661.547 1193.51 797.96 1061.33 800.57 895.664C803.179 729.999 670.997 593.586 505.332 590.977Z" stroke="#92E3A9" stroke-width="1.5"/>
<path opacity="0.35" fill-rule="evenodd" clip-rule="evenodd" d="M-321.141 -167.859C-380.822 -68.4129 -348.586 60.585 -249.14 120.266C-149.694 179.947 -20.6964 147.711 38.9847 48.2656C98.6658 -51.1803 66.4301 -180.178 -33.0158 -239.859C-132.462 -299.54 -261.46 -267.305 -321.141 -167.859Z" stroke="#92E3A9" stroke-width="1.5"/>
<path opacity="0.35" fill-rule="evenodd" clip-rule="evenodd" d="M-427.957 -224.281C-513.215 -82.2151 -467.164 102.068 -325.099 187.326C-183.033 272.585 1.24956 226.534 86.5083 84.4685C171.767 -57.5971 125.716 -241.88 -16.3496 -327.138C-158.415 -412.397 -342.698 -366.346 -427.957 -224.281Z" stroke="#92E3A9" stroke-width="1.5"/>
</svg>
