<svg width="375" height="812" viewBox="0 0 375 812" fill="none" xmlns="http://www.w3.org/2000/svg">
<path fill-rule="evenodd" clip-rule="evenodd" d="M306.747 -22.586C328.432 40.0402 396.779 73.23 459.405 51.5455C522.032 29.8609 555.221 -38.4865 533.537 -101.113C511.852 -163.739 443.505 -196.929 380.879 -175.244C318.252 -153.56 285.063 -85.2123 306.747 -22.586Z" fill="#FF725E"/>
<path opacity="0.35" fill-rule="evenodd" clip-rule="evenodd" d="M227.985 -23.8874C265.933 85.7085 385.541 143.791 495.137 105.843C604.733 67.8947 662.815 -51.7132 624.867 -161.309C586.919 -270.905 467.311 -328.987 357.715 -291.039C248.119 -253.091 190.037 -133.483 227.985 -23.8874Z" stroke="#FF725E" stroke-width="1.5"/>
<path opacity="0.35" fill-rule="evenodd" clip-rule="evenodd" d="M154.241 -29.0419C208.452 127.524 379.321 210.498 535.886 156.287C692.452 102.076 775.426 -68.793 721.215 -225.359C667.004 -381.924 496.135 -464.899 339.57 -410.687C183.004 -356.476 100.029 -185.607 154.241 -29.0419Z" stroke="#FF725E" stroke-width="1.5"/>
<path opacity="0.35" fill-rule="evenodd" clip-rule="evenodd" d="M-270.015 1020.11C-232.067 1129.71 -112.459 1187.79 -2.86302 1149.84C106.733 1111.89 164.815 992.287 126.867 882.691C88.9191 773.095 -30.6888 715.013 -140.285 752.961C-249.881 790.909 -307.963 910.517 -270.015 1020.11Z" stroke="#FF725E" stroke-width="1.5"/>
<path opacity="0.35" fill-rule="evenodd" clip-rule="evenodd" d="M-381.841 1065.8C-327.63 1222.37 -156.761 1305.34 -0.195771 1251.13C156.37 1196.92 239.344 1026.05 185.133 869.487C130.922 712.921 -39.9469 629.947 -196.512 684.158C-353.078 738.37 -436.053 909.238 -381.841 1065.8Z" stroke="#FF725E" stroke-width="1.5"/>
</svg>
