<svg width="352" height="352" viewBox="0 0 352 352" fill="none" xmlns="http://www.w3.org/2000/svg">
<path d="M299.074 79.2633C275.737 55.3273 243.514 39.3535 211.018 31.9334C206.325 30.8539 201.598 29.9153 196.839 29.1174C124.764 16.9452 80.7004 80.9599 67.9158 108.613C55.1311 136.266 21.5292 196.155 22.015 231.707C22.5007 267.259 97.4978 329.563 174.924 331.535C252.35 333.506 313.232 291.118 326.375 224.886C331.923 196.965 337.639 167.39 331.676 139.04C326.748 115.562 314.97 95.5679 299.074 79.2633Z" fill="#92E3A9"/>
<path opacity="0.7" d="M299.074 79.2633C275.737 55.3273 243.514 39.3535 211.018 31.9334C206.325 30.8539 201.598 29.9153 196.839 29.1174C124.764 16.9452 80.7004 80.9599 67.9158 108.613C55.1311 136.266 21.5292 196.155 22.015 231.707C22.5007 267.259 97.4978 329.563 174.924 331.535C252.35 333.506 313.232 291.118 326.375 224.886C331.923 196.965 337.639 167.39 331.676 139.04C326.748 115.562 314.97 95.5679 299.074 79.2633Z" fill="white"/>
<path d="M21.0352 307.338H340.503" stroke="#263238" stroke-miterlimit="10"/>
<g opacity="0.15">
<path d="M44.7242 223.168C48.6877 223.295 56.8612 219.824 56.8682 219.824C56.8752 219.824 52.9399 215.128 52.6442 214.896C49.3284 211.834 41.1127 207.856 36.7056 210.341C33.5306 212.136 33.0026 216.233 35.016 219.092C37.0295 221.95 41.352 223.027 44.7242 223.168Z" fill="black"/>
<path d="M57.0859 245.893C60.7889 245.013 67.3009 239.944 67.8149 239.557C70.706 243.281 73.841 246.808 77.1992 250.117C79.1493 252.06 81.1697 253.954 83.2184 255.827C82.1553 255.123 81.1979 254.482 81.0571 254.419C77.0443 252.342 68.0753 250.673 64.4849 254.235C61.8942 256.798 62.4645 260.895 65.1889 263.12C67.9134 265.345 72.3486 265.302 75.6293 264.528C78.9099 263.754 84.5912 259.523 86.0696 258.389L88.4491 260.501C92.2718 263.894 96.0945 267.267 99.7483 270.688C101.037 271.899 102.262 273.131 103.494 274.363C102.55 273.729 101.748 273.201 101.614 273.131C97.6081 271.019 88.6392 269.386 85.0417 272.948C82.451 275.51 83.0283 279.608 85.7457 281.832C88.4632 284.057 92.8984 284.015 96.179 283.24C99.4597 282.466 104.627 278.643 106.359 277.306C107.584 278.601 108.809 279.903 109.928 281.213C110.681 282.128 111.463 282.959 112.16 283.916L114.272 286.697C115.553 288.513 116.891 290.379 118.095 292.181C118.939 293.427 119.728 294.638 120.516 295.849C119.249 294.631 116.722 292.329 116.482 292.132C112.836 289.471 104.226 286.5 100.128 289.443C97.1857 291.555 97.1294 295.722 99.4597 298.327C101.79 300.932 106.197 301.572 109.562 301.291C113.265 300.988 120.2 297.158 121.065 296.673C122.375 298.679 123.628 300.643 124.776 302.523C125.817 304.198 126.775 305.796 127.683 307.331L130.626 306.163C129.598 304.494 128.514 302.755 127.31 300.918C125.993 298.876 124.543 296.694 123.03 294.511C124.88 292.756 126.625 290.892 128.253 288.929C131.696 290.576 139.074 291.174 140.024 291.245C140.024 293.638 139.968 295.969 139.897 298.172C139.848 299.686 139.792 301.136 139.728 302.537L142.847 301.298C142.847 300.298 142.882 299.284 142.889 298.228C142.889 295.8 142.889 293.195 142.889 290.527C143.847 290.358 151.668 288.95 154.738 286.845C157.519 284.937 160.532 281.734 160.701 278.164C160.87 274.595 158.208 271.498 154.569 271.702C149.514 271.976 144.713 279.741 143.586 284.113C143.516 284.374 143.094 287.253 142.882 289.041C142.882 287.95 142.882 286.894 142.805 285.768C142.749 283.55 142.622 281.332 142.495 278.953C142.39 277.798 142.291 276.644 142.185 275.468C142.08 274.292 141.876 273.082 141.728 271.878C141.32 269.062 140.77 266.295 140.158 263.479C142.101 263.423 149.007 263.12 152.056 261.649C155.104 260.177 158.56 257.474 159.264 253.968C159.968 250.462 157.814 247.005 154.182 246.653C149.148 246.161 143.241 253.116 141.446 257.263C141.334 257.516 140.383 260.635 139.89 262.36C139.51 260.67 139.137 258.987 138.694 257.291C137.412 252.405 135.969 247.491 134.547 242.591C134.111 241.085 133.695 239.585 133.273 238.086C133.977 238.086 142.178 237.882 145.6 236.234C148.641 234.77 152.105 232.059 152.809 228.561C153.513 225.062 151.359 221.598 147.726 221.246C142.692 220.753 136.786 227.702 134.991 231.848C134.857 232.158 133.491 236.65 133.195 237.811C132.266 234.502 131.372 231.194 130.626 227.899C129.59 223.456 128.844 218.95 128.394 214.41C128.711 214.41 137.286 214.255 140.792 212.566C143.826 211.101 147.296 208.391 147.993 204.885C148.69 201.379 146.543 197.923 142.918 197.571C137.884 197.078 131.977 204.033 130.182 208.173C130.041 208.504 128.57 213.333 128.366 214.227C128.366 213.967 128.288 213.692 128.267 213.432C127.942 208.867 128.022 204.282 128.507 199.732C128.746 197.211 129.112 194.804 129.52 192.502C131.119 192.635 138.44 193.171 141.756 192.002C144.938 190.875 148.683 188.566 149.76 185.159C150.838 181.752 149.056 178.077 145.536 177.331C140.608 176.289 133.956 182.547 131.717 186.483C131.59 186.694 130.598 188.996 129.894 190.707C130.091 189.665 130.281 188.595 130.492 187.588C131.28 183.843 132.231 180.463 133.097 177.478C133.604 175.782 134.096 174.261 134.568 172.846C136.208 172.142 142.777 169.326 145.128 166.785C147.479 164.243 149.69 160.547 149.085 157.027C148.479 153.507 145.213 151.057 141.707 152.029C136.835 153.387 133.829 162.004 133.653 166.517C133.653 166.904 134.089 173.036 134.174 173.001L134.28 172.959C133.794 174.317 133.287 175.775 132.773 177.38C131.837 180.358 130.809 183.716 129.957 187.461C128.973 191.483 128.226 195.559 127.718 199.668C127.128 204.266 126.947 208.907 127.176 213.537C127.176 213.587 127.176 213.643 127.176 213.699C126.655 212.291 125.064 208.49 124.902 208.208C122.706 204.259 116.144 197.923 111.181 198.908C107.605 199.612 105.824 203.35 106.852 206.694C107.879 210.038 111.611 212.467 114.779 213.622C118.355 214.924 126.578 214.291 127.232 214.241C127.586 218.945 128.252 223.621 129.225 228.237C129.781 230.933 130.422 233.629 131.097 236.319C130.605 235.136 130.154 234.08 130.077 233.939C127.88 229.99 121.319 223.661 116.356 224.646C112.779 225.35 110.998 229.089 112.026 232.39C113.054 235.692 116.785 238.163 119.953 239.318C123.121 240.472 130.196 240.092 132.048 239.965C132.322 240.993 132.576 242.028 132.85 243.056C134.167 247.984 135.497 252.912 136.659 257.791C137.067 259.508 137.412 261.212 137.757 262.916C137.321 261.867 136.941 260.987 136.87 260.86C134.674 256.911 128.105 250.575 123.149 251.56C119.573 252.264 117.792 256.003 118.813 259.347C119.833 262.691 123.579 265.112 126.747 266.274C129.915 267.435 136.3 267.083 138.511 266.936C138.813 268.696 139.116 270.456 139.327 272.173C139.447 273.342 139.644 274.468 139.7 275.651C139.757 276.834 139.855 277.988 139.933 279.171C140.003 281.389 140.08 283.684 140.095 285.852C140.095 287.359 140.095 288.795 140.095 290.245C139.707 288.534 138.877 285.197 138.778 284.923C137.258 281.253 134.822 278.034 131.703 275.574C131.547 275.157 131.357 274.754 131.133 274.37C129.344 271.371 125.381 270.188 122.452 272.363C118.397 275.377 118.686 284.5 120.143 288.774C120.228 289.027 121.467 291.66 122.255 293.307C121.636 292.413 121.044 291.533 120.39 290.618C119.115 288.802 117.785 287.021 116.37 285.106L114.187 282.374C113.483 281.445 112.617 280.551 111.829 279.629C109.949 277.517 107.95 275.496 105.887 273.497C107.478 272.371 113.061 268.308 114.8 265.401C116.539 262.493 117.919 258.326 116.574 255.017C115.229 251.708 111.519 250.011 108.302 251.715C103.831 254.088 102.74 263.141 103.529 267.59C103.578 267.865 104.5 270.998 105.042 272.701C103.796 271.512 102.55 270.308 101.248 269.139C97.4885 265.767 93.5742 262.465 89.6811 259.163C88.4913 258.15 87.3157 257.122 86.1611 256.108C86.7313 255.714 93.4827 251.025 95.4257 247.766C97.1505 244.865 98.5445 240.726 97.1998 237.389C95.8552 234.052 92.1451 232.376 88.9278 234.087C84.4574 236.452 83.3662 245.513 84.1547 249.955C84.211 250.293 85.5627 254.792 85.9499 255.918C83.3451 253.672 80.7755 251.412 78.3326 249.075C75.0194 245.94 71.913 242.594 69.0328 239.057C69.3003 238.874 76.3614 234.017 78.3537 230.673C80.0785 227.779 81.4725 223.633 80.1278 220.296C78.7832 216.959 75.0731 215.29 71.8558 216.994C67.3854 219.359 66.2942 228.42 67.0827 232.869C67.1461 233.214 68.5822 238.058 68.9061 238.916C68.7441 238.705 68.547 238.515 68.3851 238.304C65.5939 234.677 63.1319 230.809 61.0283 226.744C59.8385 224.513 58.8248 222.316 57.8814 220.155C59.2894 219.387 65.6888 215.797 67.8149 212.988C69.8494 210.299 71.6939 206.307 70.7224 202.872C69.7509 199.436 66.2449 197.338 62.8587 198.648C58.156 200.513 56.0792 209.398 56.3749 213.903C56.3749 214.15 56.8254 216.621 57.1704 218.416C56.7621 217.437 56.3256 216.431 55.9525 215.48C54.5445 211.925 53.4673 208.581 52.5451 205.624C52.0312 203.928 51.6017 202.386 51.2216 200.943C52.2072 199.464 56.1496 193.466 56.6917 190.059C57.2337 186.651 57.0577 182.315 54.5797 179.738C52.1016 177.162 48.0606 176.922 45.6741 179.64C42.3582 183.462 44.604 192.312 46.9413 196.17C47.1454 196.5 50.9118 201.358 50.9611 201.281L51.0174 201.196C51.3624 202.604 51.7214 204.09 52.2001 205.716C53.0661 208.708 54.0657 212.087 55.4033 215.684C56.7999 219.58 58.4242 223.391 60.268 227.096C62.3079 231.259 64.7158 235.231 67.4629 238.966C67.4629 239.008 67.5403 239.05 67.5685 239.092C66.3717 238.227 62.9291 235.917 62.6405 235.77C58.6347 233.658 49.6657 232.024 46.0683 235.587C43.4776 238.149 44.0549 242.239 46.7723 244.464C49.4897 246.689 53.8053 246.682 57.0859 245.893Z" fill="black"/>
<path d="M128.881 191.727C128.972 191.727 128.177 185.645 128.106 185.272C127.029 180.886 122.376 173.036 117.328 172.677C113.695 172.424 110.992 175.549 111.098 179.013C111.203 182.477 114.16 185.835 116.913 187.792C120.144 190.115 128.874 191.727 128.881 191.727Z" fill="black"/>
</g>
<g opacity="0.15">
<path d="M327.711 199.042C324.057 200.577 315.187 200.239 315.18 200.239C315.173 200.239 317.172 194.452 317.348 194.107C319.361 190.059 325.62 183.427 330.625 184.18C334.23 184.723 336.18 188.369 335.314 191.756C334.448 195.142 330.823 197.74 327.711 199.042Z" fill="black"/>
<path d="M226.054 204.435C229.574 204.35 236.219 201.245 237.67 200.548C238.873 202.569 240.07 204.681 241.19 206.948C243.261 211.021 244.964 215.271 246.28 219.648C246.357 219.901 246.399 220.169 246.47 220.429C245.963 219.662 242.872 215.67 242.626 215.417C239.472 212.178 231.481 207.778 226.948 210.031C223.688 211.65 222.942 215.72 224.836 218.676C226.729 221.633 230.939 222.999 234.297 223.288C238.169 223.619 246.265 220.718 246.54 220.605C247.733 225 248.639 229.469 249.25 233.981C249.722 237.325 250.06 240.733 250.37 244.154C249.666 243.176 246.808 239.466 246.575 239.226C243.421 235.988 235.431 231.588 230.897 233.841C227.631 235.46 226.891 239.529 228.75 242.486C230.608 245.443 234.854 246.808 238.219 247.097C241.999 247.421 249.743 244.675 250.391 244.443C250.532 245.992 250.68 247.547 250.806 249.103C251.222 254.193 251.616 259.297 252.165 264.324C252.348 266.063 252.601 267.766 252.869 269.484C251.799 268.076 249.8 265.471 249.602 265.26C246.448 262.029 238.458 257.629 233.924 259.875C230.665 261.494 229.919 265.563 231.812 268.527C233.706 271.491 237.916 272.849 241.274 273.138C244.632 273.427 251.215 271.258 253.052 270.618C253.474 273.434 253.96 276.25 254.566 279.023C254.854 280.206 255.072 281.431 255.417 282.543C255.762 283.656 256.051 284.796 256.368 285.908C257.072 288.182 257.776 290.294 258.48 292.392C258.846 293.455 259.184 294.448 259.578 295.476C258.712 293.857 257.29 291.322 257.135 291.104C254.509 287.429 247.279 281.867 242.457 283.402C238.986 284.515 237.634 288.422 239.028 291.625C240.422 294.828 244.407 296.827 247.688 297.623C251.299 298.496 259.113 297.032 260.064 296.849C260.972 299.362 261.88 301.777 262.774 304.065C263.154 305.043 263.535 305.987 263.908 306.881L267.259 306.937C266.703 305.649 266.132 304.311 265.548 302.91C264.703 300.882 263.83 298.721 262.964 296.483C263.83 296.081 270.511 292.899 273.144 290.147C275.368 291.398 277.662 292.519 280.015 293.505C279.382 296.102 278.797 298.637 278.29 301.016C277.833 303.128 277.425 305.17 277.051 307.092H278.29H280.191C280.494 305.339 280.825 303.515 281.191 301.594C281.606 299.425 282.071 297.144 282.599 294.8C283.577 294.948 291.427 296.06 294.989 295.032C298.235 294.096 302.1 291.998 303.381 288.696C304.662 285.395 303.113 281.586 299.593 280.628C294.708 279.305 287.724 285.176 285.267 288.964C285.105 289.203 283.563 292.28 282.81 293.892C283.127 292.484 283.43 291.076 283.782 289.604C284.267 287.492 284.845 285.275 285.401 283.121L286.386 279.77C286.703 278.622 287.14 277.573 287.513 276.454C288.097 274.827 288.78 273.173 289.463 271.526C291.575 272.152 297.848 273.877 301.086 273.455C304.324 273.032 308.569 271.54 310.337 268.435C312.104 265.33 311.153 261.395 307.816 259.889C303.191 257.84 295.405 262.585 292.392 265.957C292.293 266.063 291.737 266.844 291.075 267.773C291.779 266.182 292.483 264.591 293.272 263.007C295.468 258.509 297.848 253.996 300.213 249.462C300.706 248.519 301.185 247.569 301.67 246.646C303.458 247.181 310.224 249.11 313.638 248.667C317.053 248.223 321.129 246.745 322.889 243.647C324.649 240.55 323.705 236.607 320.369 235.101C315.75 233.052 307.957 237.797 304.944 241.162C304.838 241.289 304.169 242.218 303.43 243.274C304.683 240.789 305.894 238.304 307.021 235.798C308.988 231.506 310.663 227.087 312.033 222.57C312.66 222.767 320.552 225.188 324.325 224.682C327.669 224.245 331.808 222.767 333.576 219.662C335.343 216.557 334.385 212.622 331.055 211.115C326.43 209.067 318.637 213.812 315.631 217.184C315.419 217.423 313.026 220.81 312.209 222.042L312.258 221.887C313.468 217.426 314.281 212.868 314.687 208.264C315.092 204.145 315.254 200.005 315.173 195.867C315.173 192.023 314.877 188.517 314.617 185.412C314.462 183.73 314.293 182.195 314.117 180.766L314.201 180.829C314.279 180.879 316.067 175 316.137 174.62C316.947 170.171 315.905 161.11 311.449 158.717C308.239 156.999 304.493 158.717 303.156 161.976C301.818 165.236 303.156 169.453 304.881 172.36C306.605 175.268 312.42 179.562 313.871 180.59C314.018 182.082 314.166 183.674 314.293 185.434C314.483 188.538 314.666 192.044 314.617 195.867C314.617 196.888 314.553 197.979 314.518 199.049C314.201 197.247 313.737 194.776 313.659 194.543C312.336 190.228 307.232 182.66 302.177 182.575C298.53 182.526 296.01 185.807 296.32 189.291C296.63 192.776 299.777 195.923 302.656 197.739C305.634 199.605 312.892 200.689 314.483 200.907C314.377 203.259 314.208 205.674 313.885 208.18C313.364 212.728 312.438 217.221 311.118 221.605C311.04 221.851 310.928 222.105 310.85 222.358C310.85 221.443 310.47 216.402 310.407 216.058C309.562 211.622 305.324 203.54 300.305 202.921C296.686 202.47 293.821 205.448 293.743 208.947C293.666 212.446 296.447 215.917 299.094 218.015C302.142 220.429 310.47 222.457 310.787 222.534C309.35 226.865 307.633 231.098 305.648 235.206C304.198 238.255 302.6 241.282 300.966 244.309C300.966 243.112 300.586 238.438 300.523 238.1C299.678 233.665 295.44 225.583 290.42 224.963C286.802 224.513 283.944 227.498 283.859 230.989C283.775 234.481 286.569 237.966 289.217 240.057C292.187 242.415 300.164 244.394 300.833 244.563C300.093 245.935 299.361 247.308 298.601 248.674C296.144 253.151 293.673 257.622 291.343 262.113C290.54 263.669 289.808 265.239 289.062 266.795C288.963 265.007 288.71 261.754 288.66 261.48C287.816 257.044 283.577 248.963 278.558 248.343C274.939 247.892 272.074 250.87 271.997 254.369C271.919 257.868 274.7 261.346 277.347 263.437C279.994 265.528 286.675 267.351 288.555 267.837C287.344 270.442 286.196 273.053 285.183 275.686C284.774 276.827 284.281 277.967 283.951 279.087L282.888 282.41C282.24 284.712 281.634 286.845 281.085 288.999C280.804 290.083 280.564 291.111 280.297 292.174C280.466 290.351 280.684 287.45 280.677 287.183C280.515 282.67 277.551 274.039 272.68 272.666C269.16 271.674 265.893 274.187 265.288 277.629C265.21 278.066 265.175 278.509 265.182 278.953C263.138 282.364 262.003 286.242 261.887 290.217C261.887 290.506 262.303 293.92 262.549 295.659C262.028 294.307 261.507 292.97 260.993 291.547C260.226 289.52 259.494 287.323 258.761 285.247C258.424 284.139 258.083 283.027 257.741 281.91C257.375 280.776 257.156 279.657 256.847 278.516C256.438 276.841 256.1 275.088 255.755 273.335C257.867 272.687 264.049 270.667 266.513 268.534C268.977 266.401 271.701 262.803 271.441 259.241C271.18 255.679 268.223 252.905 264.626 253.503C259.641 254.348 255.755 262.599 255.108 267.069C255.108 267.217 255.044 268.175 255.009 269.308C254.728 267.597 254.439 265.88 254.214 264.134C253.566 259.163 253.059 254.088 252.531 249.005C252.418 247.942 252.299 246.893 252.179 245.83C253.967 245.288 260.669 243.162 263.26 240.902C265.851 238.642 268.441 235.171 268.188 231.609C267.935 228.047 264.964 225.273 261.373 225.871C256.382 226.716 252.503 234.974 251.848 239.444C251.848 239.599 251.785 240.747 251.743 242.028C251.419 239.268 251.039 236.523 250.616 233.812C249.888 229.151 248.848 224.544 247.505 220.021C248.131 219.838 256.044 217.501 258.923 215.009C261.472 212.805 264.105 209.285 263.851 205.716C263.598 202.146 260.627 199.38 257.037 199.985C252.045 200.823 248.166 209.081 247.512 213.551C247.469 213.868 247.336 218.015 247.343 219.493L247.3 219.331C245.872 214.92 244.051 210.646 241.858 206.561C239.921 202.904 237.775 199.361 235.431 195.951C233.284 192.769 231.129 189.988 229.193 187.503C228.137 186.187 227.152 185.004 226.216 183.906H226.321C226.413 183.906 224.66 178.02 224.512 177.661C222.738 173.508 216.866 166.524 211.84 166.989C208.207 167.32 206.046 170.847 206.722 174.282C207.398 177.718 210.854 180.513 213.889 181.991C216.923 183.469 224.146 183.835 225.92 183.899C226.87 185.053 227.87 186.299 228.947 187.707C230.82 190.186 232.911 193.009 234.973 196.226C235.529 197.085 236.086 198.028 236.642 198.929C235.389 197.606 233.636 195.803 233.446 195.649C229.926 192.776 221.527 189.313 217.254 192.016C214.184 193.987 213.896 198.113 216.071 200.844C218.246 203.576 222.681 204.519 226.054 204.435Z" fill="black"/>
<path d="M237.887 199.612C237.81 199.661 236.367 193.684 236.317 193.276C235.761 188.792 237.324 179.809 241.914 177.676C245.223 176.141 248.863 178.105 250.003 181.407C251.144 184.708 249.56 188.876 247.687 191.678C245.484 195.008 237.894 199.605 237.887 199.612Z" fill="black"/>
</g>
<g opacity="0.3">
<path d="M96.278 128.379L112.612 110.338L81.3755 82.0558L65.0413 100.097L96.278 128.379Z" stroke="black" stroke-width="0.998248" stroke-miterlimit="10"/>
<path d="M93.1318 122.271C93.658 121.694 94.3915 121.349 95.1714 121.312C95.9513 121.275 96.7141 121.549 97.2925 122.074C97.384 122.158 97.4614 122.243 97.5459 122.334L106.965 111.985L106.677 111.76C106.102 111.233 105.758 110.5 105.721 109.72C105.684 108.941 105.957 108.179 106.48 107.599L106.613 107.473L84.3037 87.1763L84.191 87.3171C83.6651 87.8925 82.9323 88.2356 82.1535 88.2713C81.3748 88.3069 80.6137 88.0321 80.0374 87.5072C79.946 87.4274 79.8612 87.3403 79.784 87.2467L70.3574 97.6025C70.4583 97.6714 70.5547 97.7467 70.6461 97.8278C71.2224 98.3528 71.5669 99.0851 71.6039 99.8638C71.6408 100.643 71.3672 101.404 70.8432 101.981C70.7593 102.071 70.6699 102.156 70.5757 102.235L92.9277 122.552C92.9769 122.454 93.0544 122.362 93.1318 122.271ZM85.0358 101.615C85.6779 100.91 86.5148 100.41 87.4408 100.18C88.3667 99.9503 89.3401 100 90.2376 100.324C91.1352 100.647 91.9167 101.229 92.4832 101.997C93.0497 102.765 93.3757 103.683 93.4201 104.636C93.4644 105.589 93.2251 106.534 92.7324 107.351C92.2396 108.168 91.5156 108.821 90.6519 109.226C89.7883 109.631 88.8238 109.771 87.8804 109.628C86.9371 109.486 86.0574 109.066 85.3526 108.423C84.4087 107.562 83.8451 106.361 83.7857 105.085C83.7263 103.808 84.1759 102.56 85.0358 101.615V101.615Z" stroke="black" stroke-miterlimit="10"/>
</g>
<g opacity="0.3" clip-path="url(#clip0_1_6138)">
<path d="M199.946 37.2839L159.34 51.9953C159.182 52.0527 159.007 52.0448 158.854 51.9734C158.702 51.902 158.584 51.7729 158.526 51.6145L156.32 45.5235C156.27 45.3859 156.269 45.2352 156.317 45.097C156.366 44.9589 156.46 44.8417 156.585 44.7653C157.711 44.0784 158.564 43.0235 159.001 41.7794C159.438 40.5353 159.431 39.1784 158.982 37.9387C158.533 36.699 157.669 35.6527 156.537 34.9771C155.404 34.3014 154.073 34.038 152.769 34.2315C152.624 34.2528 152.476 34.2234 152.351 34.1483C152.225 34.0732 152.129 33.957 152.079 33.8193L149.873 27.7284C149.815 27.57 149.823 27.3953 149.895 27.2428C149.966 27.0902 150.095 26.9723 150.253 26.9149L190.86 12.2034C191.018 12.1461 191.193 12.154 191.345 12.2254C191.498 12.2968 191.616 12.4259 191.673 12.5843L193.88 18.6752C193.93 18.8129 193.931 18.9635 193.882 19.1017C193.834 19.2399 193.739 19.3571 193.614 19.4335C192.489 20.1204 191.635 21.1752 191.199 22.4193C190.762 23.6634 190.768 25.0203 191.218 26.26C191.667 27.4997 192.531 28.5461 193.663 29.2217C194.795 29.8973 196.126 30.1607 197.431 29.9673C197.575 29.9459 197.723 29.9753 197.849 30.0504C197.975 30.1255 198.071 30.2417 198.12 30.3794L200.327 36.4704C200.384 36.6287 200.377 36.8034 200.305 36.956C200.234 37.1085 200.105 37.2265 199.946 37.2839ZM159.504 50.5847L198.916 36.3059L197.096 31.2809C195.578 31.3904 194.067 31.0014 192.79 30.1732C191.514 29.345 190.543 28.1228 190.024 26.6923C189.506 25.2618 189.469 23.7012 189.919 22.2476C190.368 20.7941 191.28 19.5271 192.516 18.6391L190.695 13.6141L151.283 27.8928L153.104 32.9179C154.621 32.8084 156.133 33.1973 157.41 34.0255C158.686 34.8537 159.657 36.0759 160.175 37.5065C160.693 38.937 160.731 40.4976 160.281 41.9511C159.831 43.4047 158.919 44.6717 157.684 45.5596L159.504 50.5847Z" fill="black"/>
<path d="M180.732 19.6796C180.574 19.737 180.399 19.7291 180.247 19.6577C180.094 19.5863 179.976 19.4572 179.919 19.2988L179.132 17.1275C179.075 16.9692 179.083 16.7945 179.154 16.6419C179.226 16.4894 179.355 16.3714 179.513 16.3141C179.672 16.2567 179.846 16.2646 179.999 16.336C180.151 16.4074 180.269 16.5365 180.327 16.6949L181.113 18.8661C181.171 19.0245 181.163 19.1992 181.091 19.3517C181.02 19.5043 180.891 19.6222 180.732 19.6796Z" fill="black"/>
<path d="M182.699 25.1083C182.541 25.1657 182.366 25.1578 182.214 25.0864C182.061 25.015 181.943 24.8859 181.886 24.7275L181.099 22.5563C181.042 22.3979 181.05 22.2232 181.121 22.0706C181.192 21.9181 181.322 21.8001 181.48 21.7428C181.638 21.6854 181.813 21.6933 181.966 21.7647C182.118 21.8361 182.236 21.9652 182.293 22.1236L183.08 24.2948C183.137 24.4532 183.13 24.6279 183.058 24.7804C182.987 24.933 182.858 25.0509 182.699 25.1083Z" fill="black"/>
<path d="M184.666 30.537C184.508 30.5944 184.333 30.5865 184.18 30.5151C184.028 30.4437 183.91 30.3146 183.853 30.1562L183.066 27.985C183.009 27.8266 183.016 27.6519 183.088 27.4994C183.159 27.3468 183.288 27.2289 183.447 27.1715C183.605 27.1141 183.78 27.122 183.932 27.1934C184.085 27.2648 184.203 27.3939 184.26 27.5523L185.047 29.7241C185.104 29.8825 185.096 30.057 185.025 30.2094C184.953 30.3619 184.824 30.4797 184.666 30.537Z" fill="black"/>
<path d="M186.633 35.9657C186.475 36.0231 186.3 36.0152 186.147 35.9438C185.995 35.8724 185.877 35.7433 185.819 35.5849L185.033 33.4137C184.975 33.2553 184.983 33.0806 185.055 32.9281C185.126 32.7755 185.255 32.6576 185.414 32.6002C185.572 32.5428 185.747 32.5507 185.899 32.6221C186.052 32.6935 186.17 32.8226 186.227 32.981L187.014 35.1522C187.071 35.3106 187.063 35.4853 186.992 35.6379C186.92 35.7904 186.791 35.9084 186.633 35.9657Z" fill="black"/>
<path d="M188.6 41.3944C188.441 41.4518 188.267 41.4439 188.114 41.3725C187.961 41.3011 187.844 41.172 187.786 41.0136L187 38.8424C186.942 38.684 186.95 38.5093 187.021 38.3568C187.093 38.2042 187.222 38.0863 187.38 38.0289C187.539 37.9715 187.713 37.9794 187.866 38.0508C188.019 38.1222 188.136 38.2513 188.194 38.4097L188.98 40.581C189.038 40.7393 189.03 40.914 188.959 41.0666C188.887 41.2191 188.758 41.3371 188.6 41.3944Z" fill="black"/>
<path d="M167.783 41.8715C167.665 41.9142 167.537 41.921 167.415 41.891C167.293 41.8609 167.183 41.7954 167.098 41.7027C167.013 41.6099 166.958 41.4942 166.939 41.37C166.92 41.2458 166.938 41.1189 166.992 41.0051L174.047 25.9234C174.081 25.8464 174.13 25.777 174.192 25.7193C174.253 25.6616 174.326 25.6168 174.405 25.5874C174.484 25.558 174.568 25.5446 174.652 25.548C174.737 25.5514 174.819 25.5716 174.896 25.6074C174.972 25.6431 175.041 25.6938 175.097 25.7563C175.154 25.8188 175.197 25.8919 175.225 25.9715C175.253 26.051 175.265 26.1353 175.26 26.2195C175.256 26.3037 175.234 26.3861 175.197 26.4618L168.142 41.5442C168.071 41.6965 167.941 41.8143 167.783 41.8715Z" fill="black"/>
<path d="M177.113 38.8133C176.568 39.011 175.976 39.0424 175.412 38.9037C174.849 38.7649 174.339 38.4622 173.948 38.0339C173.557 37.6055 173.301 37.0707 173.214 36.4971C173.126 35.9235 173.211 35.3368 173.457 34.8113C173.703 34.2858 174.099 33.8451 174.596 33.5448C175.092 33.2445 175.667 33.0982 176.246 33.1244C176.826 33.1506 177.385 33.348 177.852 33.6918C178.32 34.0356 178.675 34.5103 178.872 35.0558C179.136 35.7874 179.099 36.5938 178.77 37.2982C178.44 38.0026 177.844 38.5475 177.113 38.8133ZM175.547 34.4906C175.238 34.6026 174.969 34.8039 174.774 35.0689C174.579 35.3339 174.467 35.6507 174.452 35.9793C174.437 36.308 174.52 36.6336 174.69 36.9151C174.861 37.1966 175.11 37.4214 175.408 37.5609C175.706 37.7004 176.039 37.7485 176.364 37.699C176.689 37.6495 176.992 37.5047 177.235 37.2829C177.478 37.0611 177.65 36.7722 177.729 36.4528C177.808 36.1334 177.79 35.7978 177.678 35.4885C177.527 35.0739 177.218 34.7359 176.819 34.5488C176.419 34.3617 175.962 34.3408 175.547 34.4906Z" fill="black"/>
<path d="M166.71 33.8938C166.164 34.0914 165.573 34.1229 165.009 33.9841C164.446 33.8454 163.936 33.5428 163.545 33.1144C163.154 32.6861 162.898 32.1513 162.811 31.5778C162.723 31.0042 162.808 30.4176 163.054 29.8921C163.299 29.3666 163.696 28.9258 164.192 28.6254C164.689 28.3251 165.263 28.1787 165.843 28.2048C166.422 28.2309 166.981 28.4282 167.448 28.7719C167.916 29.1156 168.271 29.5902 168.469 30.1356C168.733 30.8673 168.696 31.6738 168.366 32.3784C168.037 33.0829 167.441 33.6279 166.71 33.8938ZM165.144 29.571C164.835 29.6831 164.565 29.8843 164.37 30.1494C164.176 30.4144 164.064 30.7313 164.049 31.0599C164.034 31.3886 164.117 31.7143 164.287 31.9958C164.457 32.2773 164.707 32.502 165.005 32.6415C165.303 32.7809 165.636 32.8289 165.961 32.7794C166.286 32.7298 166.59 32.5849 166.832 32.363C167.075 32.1411 167.247 31.8522 167.326 31.5327C167.404 31.2133 167.386 30.8777 167.274 30.5683C167.124 30.1539 166.815 29.8161 166.415 29.6291C166.016 29.4422 165.559 29.4213 165.144 29.571Z" fill="black"/>
</g>
<g opacity="0.3">
<path d="M240.187 170.034L254.496 189.773L288.672 164.997L274.363 145.259L240.187 170.034Z" stroke="black" stroke-miterlimit="10"/>
<path d="M246.45 168.411C246.907 169.043 247.094 169.831 246.972 170.602C246.849 171.372 246.426 172.063 245.795 172.522C245.696 172.592 245.593 172.656 245.485 172.712L253.701 184.047C253.793 183.969 253.884 183.885 253.983 183.814C254.295 183.587 254.649 183.424 255.024 183.334C255.4 183.245 255.789 183.23 256.171 183.29C256.552 183.351 256.917 183.487 257.246 183.689C257.575 183.891 257.861 184.156 258.087 184.469C258.126 184.518 258.161 184.57 258.193 184.624L282.607 166.918L282.495 166.778C282.268 166.465 282.104 166.11 282.014 165.734C281.924 165.358 281.909 164.968 281.97 164.586C282.031 164.204 282.166 163.838 282.369 163.509C282.571 163.179 282.836 162.893 283.149 162.666C283.248 162.596 283.352 162.533 283.459 162.476L275.265 151.142C275.176 151.225 275.082 151.303 274.983 151.374C274.67 151.601 274.315 151.764 273.939 151.854C273.563 151.944 273.173 151.959 272.792 151.899C272.41 151.838 272.044 151.702 271.714 151.5C271.385 151.298 271.098 151.032 270.872 150.719C270.802 150.62 270.738 150.517 270.681 150.41L246.239 168.129C246.295 168.256 246.401 168.312 246.45 168.411ZM268.323 164.694C268.882 165.466 269.2 166.387 269.235 167.34C269.271 168.293 269.024 169.235 268.524 170.047C268.024 170.86 267.295 171.506 266.428 171.903C265.562 172.301 264.597 172.433 263.655 172.283C262.713 172.132 261.838 171.706 261.138 171.058C260.439 170.409 259.947 169.568 259.726 168.641C259.504 167.713 259.563 166.741 259.894 165.847C260.225 164.952 260.814 164.176 261.586 163.617C262.098 163.244 262.68 162.976 263.296 162.828C263.913 162.681 264.552 162.656 265.178 162.756C265.804 162.856 266.404 163.079 266.944 163.411C267.484 163.744 267.952 164.18 268.323 164.694V164.694Z" stroke="black" stroke-miterlimit="10"/>
</g>
<g opacity="0.3" clip-path="url(#clip1_1_6138)">
<path d="M302.829 125.989L272.59 95.1528C272.472 95.0326 272.407 94.8704 272.408 94.7019C272.41 94.5335 272.479 94.3726 272.599 94.2546L277.224 89.7187C277.329 89.6162 277.466 89.5529 277.611 89.5396C277.757 89.5263 277.903 89.5638 278.024 89.6457C279.117 90.3846 280.431 90.7232 281.744 90.6042C283.057 90.4852 284.289 89.9158 285.23 88.9926C286.171 88.0694 286.765 86.8491 286.909 85.5385C287.054 84.2279 286.741 82.9076 286.024 81.8013C285.944 81.6783 285.91 81.5317 285.926 81.3862C285.942 81.2407 286.008 81.1052 286.112 81.0027L290.738 76.4668C290.858 76.3489 291.02 76.2835 291.189 76.2852C291.357 76.2868 291.518 76.3553 291.636 76.4756L321.875 107.312C321.993 107.432 322.059 107.595 322.057 107.763C322.055 107.931 321.987 108.092 321.867 108.21L317.241 112.746C317.137 112.849 317 112.912 316.854 112.925C316.708 112.939 316.562 112.901 316.441 112.819C315.349 112.08 314.035 111.742 312.722 111.861C311.409 111.98 310.177 112.549 309.236 113.472C308.294 114.395 307.701 115.616 307.556 116.926C307.411 118.237 307.724 119.557 308.442 120.664C308.521 120.787 308.556 120.933 308.54 121.079C308.524 121.224 308.458 121.36 308.353 121.462L303.728 125.998C303.607 126.116 303.445 126.181 303.277 126.18C303.108 126.178 302.947 126.11 302.829 125.989ZM273.942 94.7169L303.292 124.646L307.108 120.904C306.378 119.569 306.104 118.032 306.328 116.527C306.552 115.022 307.261 113.631 308.347 112.566C309.433 111.501 310.838 110.819 312.347 110.625C313.856 110.431 315.387 110.735 316.708 111.49L320.524 107.748L291.174 77.8184L287.358 81.5606C288.087 82.8958 288.361 84.4326 288.137 85.9376C287.914 87.4426 287.205 88.8334 286.118 89.8987C285.032 90.964 283.628 91.6455 282.119 91.8398C280.61 92.034 279.078 91.7303 277.758 90.9748L273.942 94.7169Z" fill="black"/>
<path d="M310.87 101.202C310.752 101.082 310.687 100.92 310.689 100.751C310.69 100.583 310.759 100.422 310.879 100.304L312.528 98.6871C312.648 98.5692 312.81 98.5039 312.979 98.5055C313.147 98.5071 313.308 98.5756 313.426 98.6959C313.544 98.8162 313.609 98.9784 313.608 99.1468C313.606 99.3153 313.538 99.4761 313.417 99.5941L311.769 101.211C311.648 101.329 311.486 101.394 311.318 101.393C311.149 101.391 310.988 101.322 310.87 101.202Z" fill="black"/>
<path d="M306.748 105.245C306.63 105.125 306.565 104.963 306.567 104.794C306.568 104.626 306.637 104.465 306.757 104.347L308.406 102.73C308.526 102.612 308.688 102.547 308.857 102.548C309.025 102.55 309.186 102.618 309.304 102.739C309.422 102.859 309.487 103.021 309.486 103.19C309.484 103.358 309.416 103.519 309.295 103.637L307.646 105.254C307.526 105.372 307.364 105.437 307.196 105.435C307.027 105.434 306.866 105.365 306.748 105.245Z" fill="black"/>
<path d="M302.625 109.288C302.507 109.168 302.442 109.005 302.444 108.837C302.445 108.668 302.514 108.508 302.634 108.39L304.283 106.773C304.403 106.655 304.565 106.589 304.734 106.591C304.902 106.593 305.063 106.661 305.181 106.781C305.299 106.902 305.364 107.064 305.363 107.232C305.361 107.401 305.293 107.562 305.172 107.68L303.523 109.297C303.403 109.415 303.241 109.48 303.072 109.478C302.904 109.476 302.743 109.408 302.625 109.288Z" fill="black"/>
<path d="M298.503 113.331C298.385 113.21 298.32 113.048 298.322 112.88C298.323 112.711 298.392 112.55 298.512 112.432L300.161 110.815C300.281 110.697 300.443 110.632 300.612 110.634C300.78 110.635 300.941 110.704 301.059 110.824C301.177 110.944 301.242 111.107 301.241 111.275C301.239 111.444 301.17 111.604 301.05 111.722L299.401 113.339C299.281 113.457 299.119 113.523 298.95 113.521C298.782 113.519 298.621 113.451 298.503 113.331Z" fill="black"/>
<path d="M294.38 117.373C294.262 117.253 294.197 117.091 294.198 116.922C294.2 116.754 294.269 116.593 294.389 116.475L296.038 114.858C296.158 114.74 296.32 114.675 296.489 114.677C296.657 114.678 296.818 114.747 296.936 114.867C297.054 114.987 297.119 115.149 297.118 115.318C297.116 115.486 297.047 115.647 296.927 115.765L295.278 117.382C295.158 117.5 294.996 117.565 294.827 117.564C294.659 117.562 294.498 117.494 294.38 117.373Z" fill="black"/>
<path d="M285.305 98.6326C285.217 98.5429 285.158 98.4292 285.135 98.3058C285.111 98.1823 285.125 98.0548 285.175 97.9392C285.224 97.8237 285.306 97.7253 285.411 97.6565C285.516 97.5878 285.639 97.5517 285.765 97.5529L302.415 97.7112C302.499 97.7106 302.582 97.7267 302.66 97.7587C302.739 97.7908 302.809 97.838 302.869 97.8977C302.929 97.9574 302.976 98.0284 303.007 98.1064C303.039 98.1845 303.055 98.2682 303.054 98.3525C303.054 98.4369 303.036 98.5202 303.003 98.5976C302.969 98.6751 302.921 98.7451 302.86 98.8036C302.799 98.8622 302.728 98.908 302.649 98.9385C302.57 98.969 302.486 98.9835 302.402 98.9812L285.752 98.8234C285.584 98.8215 285.423 98.7529 285.305 98.6326Z" fill="black"/>
<path d="M291.961 105.852C291.554 105.438 291.28 104.912 291.172 104.342C291.065 103.772 291.129 103.183 291.356 102.649C291.583 102.115 291.964 101.66 292.449 101.343C292.935 101.025 293.504 100.859 294.084 100.864C294.664 100.87 295.23 101.048 295.709 101.375C296.188 101.702 296.56 102.164 296.776 102.702C296.993 103.24 297.045 103.83 296.927 104.398C296.808 104.966 296.523 105.486 296.109 105.892C295.553 106.436 294.804 106.737 294.026 106.73C293.249 106.722 292.506 106.406 291.961 105.852ZM295.243 102.633C295.013 102.398 294.718 102.237 294.396 102.169C294.074 102.102 293.739 102.132 293.434 102.254C293.129 102.377 292.867 102.588 292.682 102.86C292.496 103.131 292.396 103.452 292.392 103.781C292.389 104.11 292.483 104.432 292.663 104.708C292.843 104.983 293.101 105.199 293.404 105.328C293.706 105.457 294.04 105.493 294.364 105.432C294.687 105.371 294.985 105.216 295.22 104.985C295.535 104.676 295.714 104.255 295.718 103.814C295.723 103.373 295.552 102.948 295.243 102.633Z" fill="black"/>
<path d="M292.118 94.3449C291.712 93.9307 291.437 93.4053 291.33 92.8351C291.222 92.265 291.286 91.6758 291.513 91.1419C291.74 90.6081 292.121 90.1536 292.606 89.8359C293.092 89.5183 293.661 89.3517 294.241 89.3573C294.821 89.3629 295.386 89.5405 295.866 89.8674C296.345 90.1944 296.717 90.6562 296.933 91.1943C297.15 91.7325 297.203 92.3228 297.084 92.8908C296.965 93.4587 296.681 93.9787 296.267 94.385C295.711 94.9291 294.962 95.2304 294.184 95.2229C293.406 95.2153 292.663 94.8996 292.118 94.3449ZM295.4 91.1258C295.17 90.8909 294.875 90.7296 294.553 90.6622C294.231 90.5949 293.896 90.6246 293.591 90.7475C293.286 90.8704 293.024 91.0811 292.839 91.3528C292.653 91.6246 292.553 91.9452 292.549 92.2742C292.546 92.6031 292.641 92.9257 292.821 93.201C293.001 93.4763 293.259 93.6921 293.561 93.8209C293.864 93.9498 294.198 93.986 294.521 93.925C294.845 93.864 295.143 93.7084 295.377 93.4781C295.692 93.169 295.871 92.7477 295.875 92.3067C295.88 91.8657 295.709 91.441 295.4 91.1258Z" fill="black"/>
</g>
<g opacity="0.3">
<path d="M15.0423 253.595L29.3516 273.334L63.5276 248.558L49.2184 228.82L15.0423 253.595Z" stroke="black" stroke-miterlimit="10"/>
<path d="M21.318 251.969C21.5449 252.281 21.708 252.635 21.7979 253.01C21.8878 253.386 21.9028 253.775 21.842 254.157C21.7812 254.538 21.6458 254.903 21.4435 255.232C21.2412 255.561 20.9761 255.847 20.6633 256.073C20.5577 256.15 20.4591 256.207 20.3535 256.27L28.5692 267.604C28.6568 267.517 28.7509 267.437 28.8508 267.365C29.4831 266.909 30.2703 266.723 31.0398 266.847C31.8093 266.971 32.4981 267.395 32.9551 268.027L33.0537 268.175L57.4754 250.476L57.3628 250.328C57.1359 250.016 56.9728 249.662 56.8829 249.286C56.793 248.911 56.778 248.522 56.8388 248.14C56.8996 247.759 57.035 247.394 57.2373 247.065C57.4396 246.736 57.7047 246.45 58.0175 246.224C58.1161 246.154 58.2217 246.09 58.3273 246.027L50.1116 234.692L49.83 234.932C49.1968 235.387 48.4096 235.573 47.6396 235.451C46.8696 235.328 46.1792 234.906 45.7186 234.277C45.6482 234.171 45.5849 234.073 45.5286 233.967L21.1209 251.687C21.1631 251.771 21.2406 251.87 21.318 251.969ZM43.1913 248.244C43.7513 249.016 44.0698 249.937 44.1067 250.89C44.1435 251.843 43.897 252.785 43.3982 253.598C42.8995 254.411 42.1709 255.058 41.3046 255.457C40.4384 255.855 39.4733 255.988 38.5314 255.839C37.5896 255.689 36.7132 255.264 36.0131 254.616C35.3131 253.969 34.8207 253.128 34.5984 252.201C34.376 251.273 34.4336 250.301 34.7639 249.406C35.0942 248.511 35.6824 247.735 36.454 247.174C37.4898 246.424 38.7809 246.116 40.0439 246.316C41.3069 246.517 42.4388 247.21 43.1913 248.244V248.244Z" stroke="black" stroke-miterlimit="10"/>
</g>
<path d="M62.8118 160.744L82.5238 169.826L98.7651 147.946C98.7651 147.946 98.5328 142.426 98.7651 141.61C99.4881 140.163 100.334 138.78 101.292 137.477C101.637 137.013 102.327 137.477 102.44 138.181C102.553 138.885 102.095 139.448 101.87 140.026C101.644 140.603 101.166 141.863 101.166 141.863L101.736 143.588L107.826 138.758C107.826 138.758 109.234 136.921 109.67 137.724C109.807 137.963 109.871 138.237 109.853 138.513C109.836 138.788 109.738 139.052 109.571 139.272L106.798 143.011L108.635 143.123L113.113 139.336C113.113 139.336 113.915 138.991 114.035 140.04C114.07 140.36 114.029 140.684 113.917 140.986C113.804 141.288 113.623 141.559 113.387 141.779L110.642 144.348L108.86 145.439L114.147 143.257C114.147 143.257 114.851 143.961 114.605 144.292L108.86 148.769L113.084 148.065C113.084 148.065 113.662 148.868 113.317 149.333L101.595 152.662C101.595 152.662 85.2413 183.392 85.0089 183.85C84.7766 184.307 82.3689 185.342 80.5315 184.772C78.6941 184.202 55.1875 173.965 55.1875 173.965" fill="#92E3A9"/>
<path d="M62.8118 160.744L82.5238 169.826L98.7651 147.946C98.7651 147.946 98.5328 142.426 98.7651 141.61C99.4881 140.163 100.334 138.78 101.292 137.477C101.637 137.013 102.327 137.477 102.44 138.181C102.553 138.885 102.095 139.448 101.87 140.026C101.644 140.603 101.166 141.863 101.166 141.863L101.736 143.588L107.826 138.758C107.826 138.758 109.234 136.921 109.67 137.724C109.807 137.963 109.871 138.237 109.853 138.513C109.836 138.788 109.738 139.052 109.571 139.272L106.798 143.011L108.635 143.123L113.113 139.336C113.113 139.336 113.915 138.991 114.035 140.04C114.07 140.36 114.029 140.684 113.917 140.986C113.804 141.288 113.623 141.559 113.387 141.779L110.642 144.348L108.86 145.439L114.147 143.257C114.147 143.257 114.851 143.961 114.605 144.292L108.86 148.769L113.084 148.065C113.084 148.065 113.662 148.868 113.317 149.333L101.595 152.662C101.595 152.662 85.2413 183.392 85.0089 183.85C84.7766 184.307 82.3689 185.342 80.5315 184.772C78.6941 184.202 55.1875 173.965 55.1875 173.965" stroke="#263238" stroke-miterlimit="10"/>
<path d="M93.0268 168.805L101.623 152.655L113.344 149.325C113.689 148.861 113.112 148.058 113.112 148.058L108.888 148.762L114.633 144.285C114.865 143.94 114.175 143.25 114.175 143.25L108.888 145.432L110.669 144.341L113.415 141.772C113.65 141.552 113.832 141.281 113.944 140.979C114.057 140.677 114.097 140.353 114.062 140.033C113.943 138.998 113.14 139.329 113.14 139.329L108.663 143.116L106.825 143.004L109.599 139.265C109.765 139.045 109.863 138.781 109.881 138.506C109.898 138.23 109.835 137.956 109.698 137.717C109.233 136.914 107.853 138.751 107.853 138.751L101.735 143.616L101.165 141.891C101.165 141.891 101.623 140.624 101.869 140.054C102.115 139.484 102.573 138.899 102.439 138.209C102.306 137.519 101.637 137.062 101.292 137.505C100.333 138.808 99.4874 140.191 98.7644 141.638C98.5321 142.44 98.7644 147.974 98.7644 147.974L86.7119 164.208L93.0268 168.805Z" fill="white" stroke="#263238" stroke-miterlimit="10"/>
<path d="M101.735 143.616C102.354 144.134 102.866 144.768 103.242 145.482C103.608 146.383 101.982 148.544 101.264 148.903" stroke="#263238" stroke-miterlimit="10"/>
<path d="M145.155 149.508C157.524 137.139 157.524 117.085 145.155 104.716C132.786 92.347 112.732 92.347 100.363 104.716C87.9939 117.085 87.9939 137.139 100.363 149.508C112.732 161.877 132.786 161.877 145.155 149.508Z" fill="white" stroke="#263238" stroke-miterlimit="10"/>
<path d="M133.889 151.27C147.229 145.12 153.058 129.321 146.908 115.981C140.758 102.641 124.959 96.8124 111.619 102.962C98.279 109.112 92.4502 124.911 98.6 138.251C104.75 151.591 120.549 157.42 133.889 151.27Z" fill="white" stroke="#263238" stroke-miterlimit="10"/>
<path d="M126.597 117.602L127.551 120.166L130.959 118.899L132.113 122.004L128.502 123.346C128.937 125.617 128.625 127.499 127.568 128.994C126.533 130.48 124.598 131.749 121.764 132.803L122.429 134.592C122.822 135.649 123.345 136.402 123.998 136.85C124.674 137.29 125.54 137.314 126.598 136.921C127.61 136.544 128.236 135.991 128.477 135.262C128.71 134.51 128.621 133.582 128.211 132.48L132.598 130.849C133.398 133.138 133.405 135.12 132.619 136.794C131.825 138.447 130.281 139.699 127.986 140.552C125.602 141.439 123.541 141.475 121.805 140.661C120.068 139.848 118.744 138.215 117.833 135.763L116.164 131.275C118.571 130.38 120.327 129.663 121.433 129.124C122.53 128.562 123.284 127.975 123.696 127.361C124.108 126.747 124.237 125.956 124.082 124.989L113.993 128.741L112.839 125.636L123.096 121.822L122.143 119.258L111.885 123.072L110.656 119.765L128.776 113.028L130.005 116.335L126.597 117.602Z" fill="black"/>
<path d="M98.0749 298.855L106.431 304.769C106.431 304.769 111.472 305.804 112.12 306.324C112.767 306.845 112.76 309.035 112.76 309.035C112.76 309.035 107.6 309.683 102.82 309.809C98.0397 309.936 95.5827 309.809 91.8374 309.683C88.0922 309.556 84.9946 309.809 84.2202 308.908C83.4458 308.007 84.2202 300.115 84.2202 300.115C84.2202 300.115 92.9286 295.384 98.0749 298.855Z" fill="white" stroke="#263238" stroke-miterlimit="10"/>
<path d="M102.819 309.809C107.599 309.683 112.759 309.035 112.759 309.035C112.756 308.563 112.718 308.093 112.647 307.627C107.303 308.063 97.3771 308.753 94.6808 308.099C91.6113 307.359 85.8667 307.057 83.8814 306.965C83.8368 307.621 83.9528 308.279 84.2193 308.88C84.9937 309.781 88.0913 309.521 91.8366 309.654C95.5819 309.788 98.0388 309.936 102.819 309.809Z" fill="white" stroke="#263238" stroke-miterlimit="10"/>
<path d="M50.1813 302.445L54.5743 308L62.1916 312.78C62.7055 314.329 62.452 314.716 62.3183 315.237C62.1845 315.758 59.8684 315.878 57.0242 315.751C54.1801 315.624 47.2105 316.526 45.1407 315.878C43.0709 315.23 36.4885 313.428 35.7141 313.062C34.9397 312.696 33.6444 312.287 34.0316 310.865C34.4188 309.443 35.5593 304.459 35.5593 304.459C37.7039 303.081 40.123 302.187 42.6482 301.84C45.1735 301.492 47.7441 301.699 50.1813 302.445Z" fill="white" stroke="#263238" stroke-miterlimit="10"/>
<path d="M57.0242 315.751C59.8402 315.878 62.1916 315.751 62.3183 315.237C62.4807 314.804 62.5316 314.337 62.4661 313.878C58.9461 314.026 49.7941 314.385 47.2104 314.069C44.2536 313.717 35.686 310.549 34.2428 310.021C34.1653 310.351 34.0879 310.633 34.0316 310.844C33.6444 312.252 34.9397 312.653 35.7141 313.041C36.4885 313.428 43.078 315.237 45.1407 315.857C47.2034 316.476 54.2082 315.624 57.0242 315.751Z" fill="white" stroke="#263238" stroke-miterlimit="10"/>
<path d="M44.6061 212.721L48.2669 257.03L36.9044 297.954L35.2852 304.438C35.2852 304.438 36.5453 305.522 39.9738 305.339C43.4023 305.156 50.2452 303.537 50.2452 303.537C50.7488 302.597 50.9918 301.54 50.9492 300.474C50.7661 299.031 50.048 298.489 50.048 297.954C50.048 297.419 65.2122 257.03 65.2122 257.03L66.6202 233.594L76.8986 259.734L83.5655 300.115C83.5655 300.115 83.9316 302.101 84.4666 301.918C85.0016 301.734 94.0551 298.496 94.0551 298.496L97.4765 298.862C97.4765 298.862 97.8356 293.631 96.3924 292.526C95.587 291.954 94.9126 291.218 94.4141 290.365L92.9709 251.969L78.8909 212.488L77.6237 207.624L45.1975 209.44L44.6061 212.721Z" fill="#263238" stroke="#263238" stroke-miterlimit="10"/>
<path d="M44.6055 212.721L44.8941 215.135L78.9114 212.502L77.4471 209.327L44.6055 212.721Z" fill="#92E3A9" stroke="#263238" stroke-miterlimit="10"/>
<path d="M40.8328 157.45C40.8328 157.45 38.7208 164.454 38.9742 167.672C39.2277 170.889 43.1982 196.289 43.1982 196.289L44.6978 206.054C44.6978 206.054 43.5432 209.039 43.6629 209.729C43.7826 210.419 43.5432 212.256 44.5781 212.721C45.613 213.185 54.3778 212.608 63.3608 212.376C72.3438 212.143 75.7723 211.798 76.9198 211.341C78.0674 210.883 79.4472 209.271 79.2149 208.011C78.9216 206.797 78.538 205.606 78.0674 204.449C78.0674 204.449 77.6098 173.761 76.9198 169.052C76.2299 164.342 75.4274 157.907 73.0126 155.493C70.5979 153.078 66.557 152.064 66.557 152.064L63.3608 158.02C63.3608 158.02 52.3291 153.542 48.3093 153.092C44.2894 152.641 40.8328 157.45 40.8328 157.45Z" fill="#92E3A9" stroke="#263238" stroke-miterlimit="10"/>
<path d="M47.5553 179.83C46.0628 180.287 44.8308 180.639 44.2324 180.745" stroke="#263238" stroke-miterlimit="10"/>
<path d="M57.7288 176.422C57.7288 176.422 53.4485 177.922 49.6328 179.161" stroke="#263238" stroke-miterlimit="10"/>
<path d="M47.0265 188.221C46.4364 188.652 45.8152 189.038 45.168 189.376" stroke="#263238" stroke-miterlimit="10"/>
<path d="M58.8677 177.739C58.8677 177.739 53.4328 183.174 49.0117 186.736" stroke="#263238" stroke-miterlimit="10"/>
<path d="M64.9436 164.032C64.9436 164.032 55.6367 159.104 51.1593 157.696C46.6818 156.288 45.0697 156.091 44.0348 156.288C42.9999 156.485 38.973 160.66 38.6281 159.512C38.2831 158.365 39.8953 151.008 40.3529 149.396C40.8105 147.784 47.8223 145.834 49.7794 145.263C51.7366 144.693 61.501 148.481 63.6834 149.171C65.8658 149.86 67.9074 152.388 67.9074 154.099C67.9074 155.809 64.9436 164.032 64.9436 164.032Z" fill="#92E3A9" stroke="#263238" stroke-miterlimit="10"/>
<path d="M41.2266 151.839C41.2266 151.839 43.1062 150.339 44.2326 151.093C45.359 151.846 64.2896 162.504 64.2896 162.504L65.247 152.592" stroke="#263238" stroke-miterlimit="10"/>
<path d="M67.9367 121.672C67.9367 121.672 69.57 126.6 69.57 127.825C69.57 129.05 68.9927 131.092 69.3799 131.859C69.7671 132.627 72.0692 136.182 71.689 136.787C71.3089 137.393 69.8586 139.477 69.8586 139.477C69.8586 139.477 69.4785 146.678 69.0913 147.453C68.7041 148.227 66.2119 148.157 65.0574 148.157H62.6567C62.6567 148.157 64.7687 162.378 64.29 162.568C63.8113 162.758 50.0692 148.734 50.0692 148.734L50.5479 138.456C50.5479 138.456 45.7607 131.282 46.514 128.128C47.2673 124.974 54.779 122.461 58.8129 121.405C62.8468 120.349 67.9367 121.672 67.9367 121.672Z" fill="white" stroke="#263238" stroke-miterlimit="10"/>
<path d="M66.8806 132.493C67.0214 133.197 66.8102 133.901 66.423 133.95C66.0358 133.999 65.6064 133.486 65.4656 132.76C65.3248 132.035 65.536 131.352 65.9302 131.303C66.3245 131.254 66.7328 131.761 66.8806 132.493Z" fill="#263238"/>
<path d="M64.2891 129.937C64.7037 129.451 65.2542 129.099 65.87 128.927C66.4859 128.755 67.139 128.771 67.7457 128.973" stroke="#263238" stroke-miterlimit="10"/>
<path d="M62.8467 137.815C63.8253 139.13 65.2674 140.024 66.8806 140.314" stroke="#263238" stroke-miterlimit="10"/>
<path d="M52.2786 134.647C52.2786 134.647 54.7778 135.027 54.7778 134.358C54.7778 133.69 54.4892 131.183 54.4892 131.183C54.4892 131.183 57.8473 128.494 57.7558 127.248C57.6642 126.002 56.1225 124.939 56.214 124.559C56.3055 124.179 60.8252 122.827 64.479 122.827C68.1327 122.827 68.9001 123.594 70.0546 121.862C71.2092 120.131 72.0681 117.829 69.8575 115.428C67.647 113.027 66.591 114.083 65.4434 113.795C64.2959 113.506 60.9238 110.141 58.6217 110.915C57.9694 111.117 57.3836 111.49 56.9263 111.997C56.469 112.504 56.1573 113.125 56.0239 113.795C56.0239 113.795 51.7014 110.915 49.878 112.45C48.838 113.262 48.1257 114.422 47.8716 115.717C47.0244 115.779 46.2079 116.06 45.5011 116.531C44.7943 117.002 44.2213 117.648 43.8377 118.406C42.5846 121.004 42.6831 122.44 42.6831 122.44C42.6831 122.44 40.2684 123.904 40.367 126.016C40.3499 127.091 40.6145 128.152 41.1343 129.093C41.1343 129.093 39.1138 129.958 41.1343 133.028C43.1548 136.097 43.9503 136.492 43.9503 136.492C43.9503 136.492 41.6482 136.78 43.9503 138.702C46.2524 140.624 50.4834 141.391 51.4479 141.87C52.4124 142.349 52.6025 139.181 52.6025 137.259C52.6492 136.376 52.5396 135.492 52.2786 134.647Z" fill="#263238" stroke="#263238" stroke-miterlimit="10"/>
<path d="M53.8133 135.605C53.8133 135.605 51.3141 132.352 49.9836 133.394C48.653 134.436 49.5049 139.061 50.9481 140.504C52.3913 141.948 54.5033 139.448 54.5033 139.448" fill="white"/>
<path d="M53.8133 135.605C53.8133 135.605 51.3141 132.352 49.9836 133.394C48.653 134.436 49.5049 139.061 50.9481 140.504C52.3913 141.948 54.5033 139.448 54.5033 139.448" stroke="#263238" stroke-miterlimit="10"/>
<path d="M62.6563 148.093L58.5098 148.023L63.3392 152.965L62.6563 148.093Z" fill="#263238" stroke="#263238" stroke-miterlimit="10"/>
<path d="M52.5333 160.202L72.2453 169.284L88.4796 147.404C88.4796 147.404 88.2543 141.891 88.4796 141.068C88.7049 140.244 90.669 137.393 91.014 136.935C91.3589 136.477 92.0418 136.935 92.1615 137.639C92.2812 138.343 91.8165 138.899 91.5842 139.476C91.3519 140.054 90.8802 141.314 90.8802 141.314L91.4575 143.039L97.5471 138.209C97.5471 138.209 98.9551 136.372 99.3845 137.174C99.5227 137.413 99.5876 137.687 99.5714 137.963C99.5551 138.238 99.4583 138.502 99.293 138.723L96.477 142.461L98.3145 142.581L102.799 138.787C102.799 138.787 103.602 138.442 103.714 139.491C103.752 139.811 103.713 140.137 103.602 140.44C103.49 140.743 103.31 141.016 103.074 141.236L100.321 143.799L98.5609 144.876L103.848 142.694C103.848 142.694 104.552 143.398 104.306 143.729L98.5609 148.206L102.785 147.502C102.785 147.502 103.355 148.312 103.01 148.769L91.2885 152.099C91.2885 152.099 74.9346 182.829 74.7093 183.286C74.4841 183.744 72.0623 184.779 70.2249 184.209C68.3874 183.638 44.8809 173.409 44.8809 173.409" fill="#92E3A9"/>
<path d="M52.5333 160.202L72.2453 169.284L88.4796 147.404C88.4796 147.404 88.2543 141.891 88.4796 141.068C88.7049 140.244 90.669 137.393 91.014 136.935C91.3589 136.477 92.0418 136.935 92.1615 137.639C92.2812 138.343 91.8165 138.899 91.5842 139.476C91.3519 140.054 90.8802 141.314 90.8802 141.314L91.4575 143.039L97.5471 138.209C97.5471 138.209 98.9551 136.372 99.3845 137.174C99.5227 137.413 99.5876 137.687 99.5714 137.963C99.5551 138.238 99.4583 138.502 99.293 138.723L96.477 142.461L98.3145 142.581L102.799 138.787C102.799 138.787 103.602 138.442 103.714 139.491C103.752 139.811 103.713 140.137 103.602 140.44C103.49 140.743 103.31 141.016 103.074 141.236L100.321 143.799L98.5609 144.876L103.848 142.694C103.848 142.694 104.552 143.398 104.306 143.729L98.5609 148.206L102.785 147.502C102.785 147.502 103.355 148.312 103.01 148.769L91.2885 152.099C91.2885 152.099 74.9346 182.829 74.7093 183.286C74.4841 183.744 72.0623 184.779 70.2249 184.209C68.3874 183.638 44.8809 173.409 44.8809 173.409" stroke="#263238" stroke-miterlimit="10"/>
<path d="M82.7554 168.256L91.3442 152.106L103.066 148.776C103.411 148.319 102.841 147.509 102.841 147.509L98.6165 148.213L104.361 143.736C104.594 143.391 103.904 142.701 103.904 142.701L98.6165 144.883L100.391 143.792L103.143 141.229C103.379 141.009 103.56 140.736 103.672 140.433C103.783 140.13 103.821 139.804 103.784 139.484C103.671 138.449 102.869 138.78 102.869 138.78L98.3842 142.574L96.5468 142.454L99.3628 138.716C99.5281 138.495 99.6248 138.231 99.6411 137.956C99.6574 137.68 99.5924 137.406 99.4543 137.167C98.9967 136.365 97.6169 138.202 97.6169 138.202L91.5273 143.032L90.95 141.307C90.95 141.307 91.4076 140.04 91.654 139.469C91.9004 138.899 92.358 138.322 92.2313 137.632C92.1045 136.942 91.4217 136.477 91.0767 136.928C90.7317 137.379 88.7817 140.258 88.5493 141.061C88.317 141.863 88.5493 147.397 88.5493 147.397L76.5039 163.631L82.7554 168.256Z" fill="white" stroke="#263238" stroke-miterlimit="10"/>
<path d="M248.512 75.673V289.027C248.512 291.832 247.401 294.522 245.422 296.509C243.442 298.496 240.757 299.618 237.952 299.63H145.728C142.923 299.618 140.238 298.496 138.258 296.509C136.279 294.522 135.168 291.832 135.168 289.027V75.673C135.166 72.8679 136.277 70.1765 138.256 68.189C140.236 66.2015 142.923 65.0801 145.728 65.0708H185.293V65.1975C186.278 68.7175 188.552 71.0548 191.066 71.0548H192.516C195.029 71.0548 197.303 68.7457 198.289 65.1975V65.0708H237.952C240.757 65.082 243.442 66.2039 245.422 68.191C247.401 70.1781 248.512 72.8685 248.512 75.673Z" fill="white" stroke="#263238" stroke-linecap="round" stroke-linejoin="round"/>
<path d="M248.512 81.7134V75.673C248.512 72.8685 247.401 70.1781 245.422 68.191C243.442 66.2039 240.757 65.082 237.952 65.0708H198.373V65.1975C197.387 68.7175 195.114 71.0548 192.6 71.0548H191.15C188.637 71.0548 186.363 68.7457 185.377 65.1975V65.0708H145.728C142.923 65.0801 140.236 66.2015 138.256 68.189C136.277 70.1765 135.166 72.8679 135.168 75.673V81.7134H248.512Z" fill="#263238" stroke="#263238" stroke-miterlimit="10"/>
<path d="M135.168 283.325V289.027C135.168 291.832 136.279 294.522 138.258 296.509C140.238 298.496 142.923 299.618 145.728 299.629H237.952C240.757 299.618 243.442 298.496 245.422 296.509C247.401 294.522 248.512 291.832 248.512 289.027V283.325H135.168Z" fill="#263238" stroke="#263238" stroke-miterlimit="10"/>
<path d="M255.749 126.636V105.325H253.82V78.0455C253.812 73.5892 252.037 69.3178 248.884 66.1687C245.731 63.0196 241.457 61.2499 237.001 61.248H146.678C142.218 61.2499 137.941 63.0225 134.787 66.1761C131.634 69.3298 129.861 73.6066 129.859 78.0666V294.821C129.861 299.281 131.634 303.558 134.787 306.712C137.941 309.865 142.218 311.638 146.678 311.64H237.001C241.461 311.638 245.738 309.865 248.892 306.712C252.045 303.558 253.818 299.281 253.82 294.821V144.792H255.749V132.204H253.82V126.636H255.749ZM248.512 282.811C248.512 287.27 246.741 291.547 243.588 294.701C240.435 297.855 236.159 299.628 231.7 299.629H151.958C147.502 299.622 143.232 297.847 140.084 294.694C136.936 291.54 135.168 287.267 135.168 282.811V81.8823C135.169 77.4242 136.941 73.1492 140.094 69.9968C143.246 66.8444 147.521 65.0726 151.979 65.0708H185.328V65.1975C186.313 68.7175 188.587 71.0548 191.1 71.0548H192.551C195.064 71.0548 197.338 68.7456 198.323 65.1975V65.0708H231.672C233.882 65.068 236.07 65.5007 238.113 66.3443C240.155 67.1878 242.012 68.4256 243.576 69.9868C245.139 71.5481 246.38 73.4023 247.227 75.4434C248.074 77.4845 248.511 79.6725 248.512 81.8823V282.811Z" fill="#92E3A9" stroke="#263238" stroke-linecap="round" stroke-linejoin="round"/>
<path d="M235.656 63.5431H148.022C143.728 63.5431 139.609 65.249 136.573 68.2856C133.536 71.3222 131.83 75.4407 131.83 79.7351V293.047C131.83 297.341 133.536 301.46 136.573 304.497C139.609 307.533 143.728 309.239 148.022 309.239H235.656C239.95 309.239 244.069 307.533 247.105 304.497C250.142 301.46 251.848 297.341 251.848 293.047V79.7351C251.848 75.4407 250.142 71.3222 247.105 68.2856C244.069 65.249 239.95 63.5431 235.656 63.5431ZM248.511 283.409C248.511 287.704 246.805 291.822 243.769 294.859C240.732 297.895 236.613 299.601 232.319 299.601H151.359C147.065 299.601 142.946 297.895 139.91 294.859C136.873 291.822 135.167 287.704 135.167 283.409V81.2909C135.167 76.9965 136.873 72.878 139.91 69.8415C142.946 66.8049 147.065 65.0989 151.359 65.0989H185.306V65.2257C186.292 68.7457 188.565 71.0829 191.079 71.0829H192.529C195.042 71.0829 197.316 68.7738 198.302 65.2257V65.0989H232.319C236.613 65.0989 240.732 66.8049 243.769 69.8415C246.805 72.878 248.511 76.9965 248.511 81.2909V283.409Z" fill="#263238" stroke="#263238" stroke-linecap="round" stroke-linejoin="round"/>
<path d="M193.072 65.8804C193.072 65.5688 192.98 65.2642 192.807 65.005C192.634 64.7459 192.388 64.5437 192.1 64.4242C191.812 64.3046 191.496 64.273 191.19 64.3333C190.884 64.3935 190.603 64.543 190.382 64.7629C190.162 64.9827 190.011 65.263 189.949 65.5685C189.887 65.8739 189.918 66.1908 190.036 66.479C190.154 66.7673 190.355 67.0141 190.614 67.1882C190.872 67.3623 191.176 67.456 191.488 67.4574C191.696 67.4583 191.901 67.4182 192.094 67.3394C192.286 67.2605 192.46 67.1445 192.608 66.998C192.755 66.8515 192.871 66.6773 192.951 66.4855C193.031 66.2937 193.072 66.0881 193.072 65.8804Z" fill="white"/>
<path d="M145.22 71.9278C145.22 73.5258 143.425 74.0961 143.418 75.321V75.3985H145.164V75.9406H142.841V75.483C142.841 73.7722 144.629 73.4414 144.629 71.963C144.629 71.4209 144.453 71.1322 144.009 71.1322C143.566 71.1322 143.39 71.442 143.39 71.9137V72.3783H142.841V71.9489C142.841 71.1393 143.207 70.6042 144.024 70.6042C144.84 70.6042 145.22 71.1041 145.22 71.9278Z" fill="white"/>
<path d="M148.121 71.9207V72.0544C148.147 72.2811 148.098 72.5099 147.982 72.7066C147.867 72.9033 147.691 73.0573 147.481 73.1456C147.692 73.2342 147.869 73.3894 147.985 73.5875C148.1 73.7857 148.148 74.016 148.121 74.2438V74.624C148.121 75.4336 147.741 75.9616 146.924 75.9616C146.108 75.9616 145.728 75.4618 145.728 74.624V74.2579H146.277V74.6592C146.277 75.1379 146.474 75.4266 146.896 75.4266C147.319 75.4266 147.516 75.145 147.516 74.6099V74.2016C147.516 73.6807 147.297 73.4272 146.854 73.4131H146.537V72.8851H146.882C147.276 72.8851 147.516 72.6176 147.516 72.1811V71.9418C147.516 71.3997 147.326 71.1181 146.896 71.1181C146.467 71.1181 146.277 71.4138 146.277 71.8925V72.16H145.728V71.9207C145.728 71.1111 146.101 70.5901 146.91 70.5901C147.72 70.5901 148.121 71.104 148.121 71.9207Z" fill="white"/>
<path d="M149.248 72.322V73.026H148.678V72.322H149.248ZM149.248 75.2014V75.9406H148.678V75.2014H149.248Z" fill="white"/>
<path d="M150.465 72.8006C150.541 72.6607 150.654 72.5448 150.792 72.4664C150.93 72.3879 151.088 72.3501 151.247 72.3571C151.951 72.3571 152.232 72.857 152.232 73.6173V74.624C152.232 75.4336 151.845 75.9616 151.035 75.9616C150.226 75.9616 149.846 75.4336 149.846 74.624V74.265H150.402V74.6592C150.402 75.1379 150.599 75.4266 151.021 75.4266C151.444 75.4266 151.641 75.1379 151.641 74.6592V73.6314C151.641 73.1526 151.444 72.871 151.021 72.871C150.945 72.8673 150.868 72.879 150.796 72.9055C150.724 72.932 150.658 72.9728 150.602 73.0253C150.546 73.0779 150.502 73.1412 150.471 73.2115C150.44 73.2818 150.424 73.3575 150.423 73.4342V73.5539H149.874L150.015 70.6112H152.127V71.1392H150.564L150.465 72.8006Z" fill="white"/>
<path d="M155.182 71.9136V72.0122H154.626V71.8714C154.626 71.3997 154.429 71.1181 154 71.1181C153.57 71.1181 153.352 71.4067 153.352 71.9699V73.1597C153.416 72.9858 153.534 72.8368 153.688 72.7342C153.843 72.6317 154.026 72.581 154.211 72.5895C154.915 72.5895 155.196 73.0823 155.196 73.8496V74.624C155.196 75.4336 154.795 75.9616 153.985 75.9616C153.176 75.9616 152.768 75.4618 152.768 74.624V71.9488C152.768 71.111 153.141 70.5901 153.985 70.5901C154.83 70.5901 155.182 71.104 155.182 71.9136ZM153.352 73.8918V74.6874C153.352 75.1661 153.549 75.4547 153.985 75.4547C154.422 75.4547 154.612 75.1661 154.612 74.6874V73.92C154.612 73.4483 154.408 73.1597 153.985 73.1597C153.563 73.1597 153.352 73.4202 153.352 73.92V73.8918Z" fill="white"/>
<path d="M213.016 72.146H211.523V75.8842H213.016V72.146Z" fill="white"/>
<path d="M215.022 71.3927H213.522V75.8842H215.022V71.3927Z" fill="white"/>
<path d="M217.014 70.8647H215.515V75.8843H217.014V70.8647Z" fill="white"/>
<path d="M219 69.9354H217.508V75.8842H219V69.9354Z" fill="white"/>
<path d="M237.522 75.7856H228.546V70.2944H237.522V75.7856ZM229.074 75.2858H237.05V70.7943H229.046L229.074 75.2858Z" fill="white"/>
<path d="M234.53 71.3364H229.792V74.7367H234.53V71.3364Z" fill="white"/>
<path d="M238.331 72.3923H237.205V73.6877H238.331V72.3923Z" fill="white"/>
<path d="M225.28 74.624C225.22 74.6251 225.161 74.608 225.111 74.5748C223.281 73.4906 222.077 74.4973 222.028 74.5748C221.964 74.6363 221.88 74.6707 221.792 74.6707C221.704 74.6707 221.619 74.6363 221.556 74.5748C221.525 74.544 221.5 74.5073 221.483 74.4668C221.466 74.4263 221.457 74.3828 221.457 74.3389C221.457 74.295 221.466 74.2516 221.483 74.2111C221.5 74.1706 221.525 74.1339 221.556 74.1031C221.619 74.0468 223.168 72.6951 225.428 74.0608C225.466 74.0839 225.499 74.1143 225.525 74.1501C225.551 74.186 225.57 74.2267 225.58 74.2698C225.591 74.313 225.593 74.3578 225.586 74.4016C225.579 74.4455 225.564 74.4876 225.54 74.5255C225.507 74.5595 225.466 74.5858 225.421 74.6028C225.376 74.6198 225.328 74.6271 225.28 74.624Z" fill="white"/>
<path d="M225.928 73.4624C225.868 73.4635 225.809 73.4463 225.759 73.4131C223.119 71.8432 221.337 73.3639 221.323 73.4131C221.293 73.4444 221.256 73.4693 221.215 73.4862C221.175 73.5032 221.131 73.5119 221.088 73.5119C221.044 73.5119 221 73.5032 220.96 73.4862C220.919 73.4693 220.883 73.4444 220.852 73.4131C220.82 73.3824 220.796 73.3456 220.779 73.3052C220.762 73.2647 220.753 73.2212 220.753 73.1773C220.753 73.1334 220.762 73.0899 220.779 73.0495C220.796 73.009 220.82 72.9723 220.852 72.9415C220.852 72.9415 223.013 71.0829 226.075 72.8992C226.113 72.9223 226.146 72.9527 226.172 72.9885C226.199 73.0244 226.218 73.0651 226.228 73.1082C226.238 73.1514 226.24 73.1961 226.233 73.24C226.227 73.2839 226.211 73.326 226.188 73.3639C226.154 73.3979 226.113 73.4242 226.068 73.4412C226.024 73.4582 225.975 73.4655 225.928 73.4624Z" fill="white"/>
<path d="M226.54 72.16C226.481 72.1568 226.423 72.1399 226.371 72.1107C223.027 70.1184 220.802 71.991 220.739 72.0755C220.675 72.1375 220.589 72.1721 220.5 72.1721C220.41 72.1721 220.325 72.1375 220.26 72.0755C220.203 72.0079 220.175 71.9207 220.182 71.8325C220.188 71.7443 220.229 71.6622 220.295 71.6038C220.295 71.6038 222.964 69.3229 226.744 71.6038C226.782 71.6263 226.815 71.656 226.841 71.6912C226.867 71.7264 226.886 71.7665 226.896 71.8091C226.907 71.8517 226.909 71.8959 226.902 71.9392C226.895 71.9825 226.88 72.0241 226.857 72.0614C226.816 72.1032 226.766 72.1341 226.711 72.1513C226.656 72.1685 226.597 72.1715 226.54 72.16Z" fill="white"/>
<path d="M224.244 75.1521C224.244 75.3192 224.195 75.4825 224.102 75.6214C224.009 75.7604 223.877 75.8686 223.723 75.9326C223.568 75.9965 223.399 76.0132 223.235 75.9806C223.071 75.948 222.92 75.8676 222.802 75.7494C222.684 75.6313 222.604 75.4808 222.571 75.3169C222.538 75.153 222.555 74.9832 222.619 74.8288C222.683 74.6744 222.791 74.5425 222.93 74.4497C223.069 74.3568 223.232 74.3073 223.399 74.3073C223.511 74.3063 223.621 74.3275 223.724 74.3697C223.827 74.4118 223.92 74.474 223.999 74.5526C224.078 74.6313 224.14 74.7248 224.182 74.8277C224.224 74.9306 224.245 75.0409 224.244 75.1521Z" fill="white"/>
<path d="M235.003 176.535H149.065C146.278 176.535 144.018 178.795 144.018 181.583V231.067C144.018 233.855 146.278 236.115 149.065 236.115H235.003C237.79 236.115 240.05 233.855 240.05 231.067V181.583C240.05 178.795 237.79 176.535 235.003 176.535Z" fill="#92E3A9" stroke="#263238" stroke-linecap="round" stroke-linejoin="round"/>
<path d="M161.548 223.499H151.382V227.702H161.548V223.499Z" fill="#263238"/>
<path d="M175.043 223.499H164.877V227.702H175.043V223.499Z" fill="#263238"/>
<path d="M188.532 223.499H178.366V227.702H188.532V223.499Z" fill="#263238"/>
<path d="M202.027 223.499H191.861V227.702H202.027V223.499Z" fill="#263238"/>
<path d="M215.523 223.499H205.357V227.702H215.523V223.499Z" fill="#263238"/>
<path d="M229.018 223.499H218.853V227.702H229.018V223.499Z" fill="#263238"/>
<path d="M171.129 197.212H153.712C152.425 197.212 151.382 198.255 151.382 199.542V211.355C151.382 212.642 152.425 213.685 153.712 213.685H171.129C172.416 213.685 173.459 212.642 173.459 211.355V199.542C173.459 198.255 172.416 197.212 171.129 197.212Z" fill="white" stroke="#263238" stroke-linecap="round" stroke-linejoin="round"/>
<path d="M199.747 183.547H151.382V185.997H199.747V183.547Z" fill="#263238"/>
<path d="M213.048 135.378C216.053 122.453 208.012 109.539 195.087 106.533C182.161 103.528 169.247 111.57 166.242 124.495C163.236 137.42 171.278 150.334 184.203 153.34C197.128 156.345 210.043 148.304 213.048 135.378Z" fill="#263238"/>
<path d="M208.489 123.784C212.249 123.784 215.297 120.737 215.297 116.977C215.297 113.217 212.249 110.169 208.489 110.169C204.73 110.169 201.682 113.217 201.682 116.977C201.682 120.737 204.73 123.784 208.489 123.784Z" fill="#92E3A9" stroke="#263238" stroke-linecap="round" stroke-linejoin="round"/>
<path d="M208.469 119.941C208.332 119.935 208.198 119.899 208.076 119.836C207.954 119.773 207.848 119.683 207.765 119.575L204.407 115.231C204.255 115.034 204.187 114.784 204.219 114.538C204.25 114.291 204.379 114.067 204.576 113.914C204.773 113.762 205.022 113.694 205.269 113.726C205.516 113.758 205.74 113.886 205.892 114.083L208.546 117.526L215.509 109.5C215.677 109.336 215.901 109.242 216.136 109.235C216.371 109.228 216.599 109.31 216.777 109.465C216.954 109.619 217.067 109.834 217.093 110.068C217.119 110.301 217.056 110.536 216.917 110.725L209.208 119.617C209.117 119.722 209.003 119.806 208.875 119.862C208.747 119.918 208.608 119.945 208.469 119.941Z" fill="#263238"/>
<path d="M195.2 121.364V124.1H198.836V127.412H194.984C194.6 129.692 193.652 131.348 192.14 132.38C190.652 133.412 188.396 133.928 185.372 133.928V135.836C185.372 136.964 185.6 137.852 186.056 138.5C186.536 139.148 187.34 139.472 188.468 139.472C189.548 139.472 190.328 139.172 190.808 138.572C191.288 137.948 191.528 137.048 191.528 135.872H196.208C196.16 138.296 195.476 140.156 194.156 141.452C192.836 142.724 190.952 143.36 188.504 143.36C185.96 143.36 184.016 142.676 182.672 141.308C181.328 139.94 180.656 137.948 180.656 135.332V130.544C183.224 130.544 185.12 130.484 186.344 130.364C187.568 130.22 188.48 129.932 189.08 129.5C189.68 129.068 190.076 128.372 190.268 127.412H179.504V124.1H190.448V121.364H179.504V117.836H198.836V121.364H195.2Z" fill="white"/>
<defs>
<clipPath id="clip0_1_6138">
<rect width="47" height="47" fill="white" transform="translate(145 18.0095) rotate(-19.9151)"/>
</clipPath>
<clipPath id="clip1_1_6138">
<rect width="47" height="47" fill="white" transform="translate(297.558 68) rotate(45.5601)"/>
</clipPath>
</defs>
</svg>
