<svg width="375" height="812" viewBox="0 0 375 812" fill="none" xmlns="http://www.w3.org/2000/svg">
<path fill-rule="evenodd" clip-rule="evenodd" d="M-77 63C-10.7258 63 43 9.27417 43 -57C43 -123.274 -10.7258 -177 -77 -177C-143.274 -177 -197 -123.274 -197 -57C-197 9.27417 -143.274 63 -77 63Z" fill="#BA68C8"/>
<path opacity="0.35" fill-rule="evenodd" clip-rule="evenodd" d="M-104 137C11.9798 137 106 42.9798 106 -73C106 -188.98 11.9798 -283 -104 -283C-219.98 -283 -314 -188.98 -314 -73C-314 42.9798 -219.98 137 -104 137Z" stroke="#9553A0" stroke-width="1.5"/>
<path opacity="0.35" fill-rule="evenodd" clip-rule="evenodd" d="M-133 205C32.6854 205 167 70.6854 167 -95C167 -260.685 32.6854 -395 -133 -395C-298.685 -395 -433 -260.685 -433 -95C-433 70.6854 -298.685 205 -133 205Z" stroke="#9553A0" stroke-width="1.5"/>
<path opacity="0.35" fill-rule="evenodd" clip-rule="evenodd" d="M488 1119C603.98 1119 698 1024.98 698 909C698 793.02 603.98 699 488 699C372.02 699 278 793.02 278 909C278 1024.98 372.02 1119 488 1119Z" stroke="#9553A0" stroke-width="1.5"/>
<path opacity="0.35" fill-rule="evenodd" clip-rule="evenodd" d="M505 1233C670.685 1233 805 1098.69 805 933C805 767.315 670.685 633 505 633C339.315 633 205 767.315 205 933C205 1098.69 339.315 1233 505 1233Z" stroke="#9553A0" stroke-width="1.5"/>
</svg>
