<svg width="375" height="751" viewBox="0 0 375 751" fill="none" xmlns="http://www.w3.org/2000/svg">
<path d="M178.371 96.8322L172.339 99.5349C171.413 99.9504 170.487 98.9583 170.964 98.0643L184.221 73.2079C184.743 72.2305 186.225 72.5992 186.225 73.7084V118.832C183.584 119.617 180.962 120.508 178.371 121.504V96.8322ZM196.079 96.8322L202.135 99.5817C203.06 100.003 203.994 99.0095 203.514 98.1126L190.229 73.2065C189.706 72.229 188.224 72.5992 188.224 73.7069V118.832C190.867 119.617 193.486 120.506 196.079 121.501V96.8322Z" fill="#7F01FC"/>
<path d="M176.379 105.329V122.369C172.96 123.641 169.564 120.44 170.635 116.953L174.297 105.016C174.656 103.849 176.379 104.108 176.379 105.329ZM203.836 116.92L200.163 104.983C199.803 103.815 198.081 104.074 198.081 105.296V122.353C201.511 123.626 204.911 120.416 203.836 116.92Z" fill="#7F01FC"/>
<path d="M216.815 66C222.63 66 227.343 68.767 227.343 72.1808C227.343 75.5946 222.63 78.3616 216.815 78.3616H157.528C151.713 78.3616 147 75.5946 147 72.1808C147 68.767 151.713 66 157.528 66H216.815Z" fill="#7F01FC"/>
<g opacity="0.5" filter="url(#filter0_d_1_2)">
<g clip-path="url(#clip0_1_2)">
<path d="M387.077 132.473L383.946 126.958L383.946 126.957C383.18 125.607 381.457 125.131 380.106 125.898L352.379 141.634C352.287 141.686 352.207 141.759 352.147 141.847L345.29 151.815C345.137 152.037 345.125 152.327 345.257 152.561C345.391 152.796 345.648 152.933 345.914 152.915L357.988 152.139C358.095 152.132 358.198 152.102 358.29 152.049L386.017 136.313C387.344 135.597 387.849 133.768 387.077 132.473V132.473ZM379.208 138.561L375.816 132.584C375.816 132.584 375.816 132.583 375.816 132.583L374.685 130.591L376.52 129.55L381.043 137.519L379.208 138.561ZM358.792 150.147L359.005 148.201L377.201 137.874L377.985 139.255L358.792 150.147ZM373.462 131.286L374.246 132.666L356.05 142.993L354.269 142.178L373.462 131.286ZM374.94 133.889L376.507 136.651L358.262 147.006L356.175 146.364L356.695 144.244L374.94 133.889ZM352.971 143.131L355.263 144.18L354.652 146.674C354.563 147.036 354.772 147.404 355.128 147.514L357.583 148.268L357.309 150.774L351.434 151.152C351.351 150.535 351.149 149.931 350.843 149.391C350.536 148.851 350.121 148.368 349.634 147.981L352.971 143.131ZM348.835 149.143C349.467 149.671 349.896 150.428 350.026 151.242L347.269 151.419L348.835 149.143ZM385.323 135.09L382.266 136.825L377.743 128.856L380.8 127.121C381.477 126.737 382.34 126.975 382.723 127.652L385.854 133.167C386.239 133.812 385.985 134.734 385.323 135.09Z" fill="#7F01FC"/>
</g>
</g>
<g filter="url(#filter1_d_1_2)">
<g clip-path="url(#clip1_1_2)">
<path d="M392.967 704.292L390.715 703.152L391.894 700.822C392.164 700.288 392.003 699.637 391.515 699.291C391.43 699.231 389.398 697.802 386.513 696.946C383.297 695.992 380.28 696.125 377.677 697.316C377.095 694.513 375.415 692.003 372.741 689.977C370.343 688.16 367.988 687.369 367.889 687.336C367.321 687.148 366.701 687.404 366.432 687.937L365.252 690.268L363 689.129C362.405 688.828 361.678 689.066 361.377 689.662L351.099 709.974C350.923 710.323 350.926 710.735 351.108 711.082C351.29 711.428 351.629 711.664 352.017 711.716C352.112 711.729 361.584 713.06 366.217 718.855C366.435 719.128 366.762 719.293 367.112 719.307C374.504 719.607 381.207 726.452 381.274 726.52C381.369 726.619 381.479 726.699 381.598 726.76C381.819 726.871 382.072 726.914 382.323 726.876C382.71 726.818 383.045 726.576 383.221 726.227L393.499 705.915C393.8 705.32 393.562 704.593 392.967 704.292ZM353.985 709.622L362.988 691.83L364.161 692.424L356.898 706.779C356.739 707.092 356.726 707.459 356.859 707.784C356.993 708.108 357.261 708.36 357.594 708.471C357.658 708.492 362.666 710.219 364.899 714.297C361.05 711.444 356.41 710.143 353.985 709.622ZM367.646 714.466C366.828 712.342 365.331 710.428 363.208 708.819C362.186 708.045 361.172 707.457 360.337 707.034C360.089 706.909 359.857 706.798 359.645 706.701L368.087 690.018L368.086 690.018C370.205 690.973 375.133 693.745 375.472 698.997L367.646 714.466ZM377.628 700.088C382.044 697.263 387.209 699.586 389.236 700.723L380.796 717.404C379.908 716.908 378.573 716.261 376.979 715.788C374.426 715.03 371.997 714.957 369.801 715.556L377.628 700.088ZM371.56 717.668C376.17 717.051 380.529 720.065 380.583 720.103C380.87 720.307 381.232 720.375 381.573 720.29C381.914 720.206 382.202 719.977 382.361 719.663L389.624 705.308L390.798 705.902L381.795 723.694C379.938 722.048 376.141 719.079 371.56 717.668Z" fill="#7F01FC"/>
</g>
</g>
<g opacity="0.5" filter="url(#filter2_d_1_2)">
<circle cx="9" cy="10" r="17" stroke="#7F01FC" stroke-width="2" shape-rendering="crispEdges"/>
</g>
<g filter="url(#filter3_d_1_2)">
<g clip-path="url(#clip2_1_2)">
<path d="M13.5669 452.177L11.2908 453.266L10.1627 450.91C9.90444 450.371 9.29034 450.102 8.71862 450.277C8.61877 450.308 6.24722 451.047 3.80978 452.812C1.09249 454.779 -0.641901 457.251 -1.28516 460.041C-3.86209 458.793 -6.87551 458.594 -10.1113 459.477C-13.0141 460.27 -15.0773 461.654 -15.1636 461.712C-15.6589 462.048 -15.8341 462.695 -15.5759 463.234L-14.4477 465.59L-16.7238 466.68C-17.3254 466.968 -17.5797 467.69 -17.2916 468.291L-7.46071 488.823C-7.29179 489.176 -6.96257 489.425 -6.57704 489.492C-6.19152 489.559 -5.79764 489.435 -5.52011 489.159C-5.4519 489.092 1.37868 482.396 8.79663 482.258C9.1467 482.251 9.47654 482.093 9.70108 481.825C14.4463 476.148 23.9592 475.01 24.0539 474.999C24.1902 474.983 24.3207 474.946 24.4412 474.888C24.6645 474.781 24.8527 474.606 24.9761 474.384C25.1658 474.042 25.1782 473.629 25.0092 473.277L15.1783 452.745C14.8901 452.143 14.1687 451.889 13.5669 452.177ZM-5.97956 486.322L-14.5907 468.338L-13.4043 467.769L-6.45661 482.28C-6.30502 482.596 -6.02255 482.831 -5.68392 482.923C-5.3453 483.015 -4.98228 482.956 -4.69132 482.759C-4.63537 482.722 -0.213149 479.806 4.38112 480.523C-0.227547 481.834 -4.0876 484.718 -5.97956 486.322ZM6.18942 478.449C4.00735 477.802 1.57785 477.821 -0.992036 478.523C-2.22883 478.861 -3.31315 479.306 -4.15715 479.71C-4.40772 479.83 -4.63715 479.946 -4.84291 480.055L-12.9175 463.191L-12.9176 463.191C-10.8687 462.094 -5.66723 459.879 -1.29715 462.813L6.18942 478.449ZM0.881984 461.77C1.33598 456.547 6.32614 453.87 8.46391 452.957L16.5372 469.818C15.603 470.22 14.2758 470.883 12.9291 471.858C10.7711 473.419 9.23264 475.3 8.3685 477.405L0.881984 461.77ZM11.1145 477.299C13.4364 473.269 18.4837 471.652 18.5469 471.633C18.8834 471.529 19.1575 471.285 19.2988 470.963C19.44 470.641 19.4339 470.273 19.282 469.956L12.3343 455.446L13.5207 454.878L22.1318 472.862C19.695 473.33 15.0262 474.529 11.1145 477.299Z" fill="#7F01FC"/>
</g>
</g>
<g opacity="0.5" filter="url(#filter4_d_1_2)">
<g clip-path="url(#clip3_1_2)">
<path d="M290.567 11.1767L288.291 12.2664L287.163 9.91033C286.904 9.37092 286.29 9.10159 285.719 9.27724C285.619 9.30784 283.247 10.0475 280.81 11.8118C278.092 13.7786 276.358 16.2509 275.715 19.0409C273.138 17.7927 270.124 17.5937 266.889 18.4773C263.986 19.2701 261.923 20.6537 261.836 20.7123C261.341 21.0477 261.166 21.6949 261.424 22.2342L262.552 24.5903L260.276 25.6801C259.675 25.9682 259.42 26.6897 259.708 27.2914L269.539 47.8234C269.708 48.1762 270.037 48.4253 270.423 48.4921C270.808 48.5588 271.202 48.4347 271.48 48.1591C271.548 48.0916 278.379 41.3957 285.797 41.2577C286.147 41.2512 286.477 41.0933 286.701 40.8247C291.446 35.1485 300.959 34.0096 301.054 33.9987C301.19 33.9835 301.321 33.9456 301.441 33.8879C301.665 33.781 301.853 33.6065 301.976 33.3842C302.166 33.0421 302.178 32.6294 302.009 32.2766L292.178 11.7446C291.89 11.143 291.169 10.8886 290.567 11.1767ZM271.02 45.3221L262.409 27.3376L263.596 26.7695L270.543 41.2799C270.695 41.5965 270.977 41.8308 271.316 41.9231C271.655 42.0153 272.018 41.9556 272.309 41.7595C272.365 41.7219 276.787 38.8057 281.381 39.5226C276.772 40.8338 272.912 43.7178 271.02 45.3221ZM283.189 37.4489C281.007 36.8019 278.578 36.8213 276.008 37.5231C274.771 37.8607 273.687 38.3057 272.843 38.7099C272.592 38.8298 272.363 38.9463 272.157 39.0551L264.083 22.1913L264.082 22.1914C266.131 21.0942 271.333 18.8789 275.703 21.8131L283.189 37.4489ZM277.882 20.7698C278.336 15.5474 283.326 12.8703 285.464 11.957L293.537 28.8181C292.603 29.22 291.276 29.8827 289.929 30.8575C287.771 32.4195 286.233 34.2999 285.369 36.4055L277.882 20.7698ZM288.114 36.2994C290.436 32.2692 295.484 30.6521 295.547 30.6326C295.883 30.5294 296.158 30.2847 296.299 29.9628C296.44 29.6407 296.434 29.2733 296.282 28.956L289.334 14.4457L290.521 13.8777L299.132 31.8621C296.695 32.3302 292.026 33.5295 288.114 36.2994Z" fill="#7F01FC"/>
</g>
</g>
<g opacity="0.5" filter="url(#filter5_d_1_2)">
<g clip-path="url(#clip4_1_2)">
<path d="M25.0736 101.877L16.1244 92.9274C14.8879 91.6909 12.8865 91.6908 11.6498 92.9274L-9.07382 113.651C-10.3074 114.885 -10.3074 116.892 -9.07382 118.126L-0.124687 127.075C0.471833 127.671 1.24926 127.979 2.03267 127.998V128H21.641V125.891H5.53402L25.0736 106.351C26.3072 105.118 26.3072 103.11 25.0736 101.877ZM1.36682 125.583L-7.58231 116.634C-7.99356 116.223 -7.99356 115.554 -7.58231 115.143L2.18292 105.377L12.6236 115.818L2.8584 125.583C2.45763 125.984 1.78468 126.001 1.36682 125.583V125.583ZM23.582 104.86L14.1151 114.327L3.67443 103.886L13.1414 94.4189C13.5536 94.0068 14.2206 94.0067 14.6329 94.4189L23.582 103.368C23.9932 103.779 23.9932 104.448 23.582 104.86V104.86Z" fill="#7F01FC"/>
<path d="M12.6904 97.8519L14.1817 96.3606L21.6382 103.817L20.1469 105.308L12.6904 97.8519Z" fill="white" fill-opacity="0.3"/>
</g>
</g>
<defs>
<filter id="filter0_d_1_2" x="333" y="114" width="68.2773" height="68.2776" filterUnits="userSpaceOnUse" color-interpolation-filters="sRGB">
<feFlood flood-opacity="0" result="BackgroundImageFix"/>
<feColorMatrix in="SourceAlpha" type="matrix" values="0 0 0 0 0 0 0 0 0 0 0 0 0 0 0 0 0 0 127 0" result="hardAlpha"/>
<feOffset dy="8"/>
<feGaussianBlur stdDeviation="6"/>
<feComposite in2="hardAlpha" operator="out"/>
<feColorMatrix type="matrix" values="0 0 0 0 0 0 0 0 0 0 0 0 0 0 0 0 0 0 0.1 0"/>
<feBlend mode="normal" in2="BackgroundImageFix" result="effect1_dropShadow_1_2"/>
<feBlend mode="normal" in="SourceGraphic" in2="effect1_dropShadow_1_2" result="shape"/>
</filter>
<filter id="filter1_d_1_2" x="337" y="678" width="72.376" height="72.3755" filterUnits="userSpaceOnUse" color-interpolation-filters="sRGB">
<feFlood flood-opacity="0" result="BackgroundImageFix"/>
<feColorMatrix in="SourceAlpha" type="matrix" values="0 0 0 0 0 0 0 0 0 0 0 0 0 0 0 0 0 0 127 0" result="hardAlpha"/>
<feOffset dy="8"/>
<feGaussianBlur stdDeviation="6"/>
<feComposite in2="hardAlpha" operator="out"/>
<feColorMatrix type="matrix" values="0 0 0 0 0 0 0 0 0 0 0 0 0 0 0 0 0 0 0.1 0"/>
<feBlend mode="normal" in2="BackgroundImageFix" result="effect1_dropShadow_1_2"/>
<feBlend mode="normal" in="SourceGraphic" in2="effect1_dropShadow_1_2" result="shape"/>
</filter>
<filter id="filter2_d_1_2" x="-21" y="-12" width="60" height="60" filterUnits="userSpaceOnUse" color-interpolation-filters="sRGB">
<feFlood flood-opacity="0" result="BackgroundImageFix"/>
<feColorMatrix in="SourceAlpha" type="matrix" values="0 0 0 0 0 0 0 0 0 0 0 0 0 0 0 0 0 0 127 0" result="hardAlpha"/>
<feOffset dy="8"/>
<feGaussianBlur stdDeviation="6"/>
<feComposite in2="hardAlpha" operator="out"/>
<feColorMatrix type="matrix" values="0 0 0 0 0 0 0 0 0 0 0 0 0 0 0 0 0 0 0.1 0"/>
<feBlend mode="normal" in2="BackgroundImageFix" result="effect1_dropShadow_1_2"/>
<feBlend mode="normal" in="SourceGraphic" in2="effect1_dropShadow_1_2" result="shape"/>
</filter>
<filter id="filter3_d_1_2" x="-33" y="441" width="72.0166" height="72.0167" filterUnits="userSpaceOnUse" color-interpolation-filters="sRGB">
<feFlood flood-opacity="0" result="BackgroundImageFix"/>
<feColorMatrix in="SourceAlpha" type="matrix" values="0 0 0 0 0 0 0 0 0 0 0 0 0 0 0 0 0 0 127 0" result="hardAlpha"/>
<feOffset dy="8"/>
<feGaussianBlur stdDeviation="6"/>
<feComposite in2="hardAlpha" operator="out"/>
<feColorMatrix type="matrix" values="0 0 0 0 0 0 0 0 0 0 0 0 0 0 0 0 0 0 0.1 0"/>
<feBlend mode="normal" in2="BackgroundImageFix" result="effect1_dropShadow_1_2"/>
<feBlend mode="normal" in="SourceGraphic" in2="effect1_dropShadow_1_2" result="shape"/>
</filter>
<filter id="filter4_d_1_2" x="244" y="0" width="72.0166" height="72.0167" filterUnits="userSpaceOnUse" color-interpolation-filters="sRGB">
<feFlood flood-opacity="0" result="BackgroundImageFix"/>
<feColorMatrix in="SourceAlpha" type="matrix" values="0 0 0 0 0 0 0 0 0 0 0 0 0 0 0 0 0 0 127 0" result="hardAlpha"/>
<feOffset dy="8"/>
<feGaussianBlur stdDeviation="6"/>
<feComposite in2="hardAlpha" operator="out"/>
<feColorMatrix type="matrix" values="0 0 0 0 0 0 0 0 0 0 0 0 0 0 0 0 0 0 0.1 0"/>
<feBlend mode="normal" in2="BackgroundImageFix" result="effect1_dropShadow_1_2"/>
<feBlend mode="normal" in="SourceGraphic" in2="effect1_dropShadow_1_2" result="shape"/>
</filter>
<filter id="filter5_d_1_2" x="-22" y="88" width="60" height="60" filterUnits="userSpaceOnUse" color-interpolation-filters="sRGB">
<feFlood flood-opacity="0" result="BackgroundImageFix"/>
<feColorMatrix in="SourceAlpha" type="matrix" values="0 0 0 0 0 0 0 0 0 0 0 0 0 0 0 0 0 0 127 0" result="hardAlpha"/>
<feOffset dy="8"/>
<feGaussianBlur stdDeviation="6"/>
<feComposite in2="hardAlpha" operator="out"/>
<feColorMatrix type="matrix" values="0 0 0 0 0 0 0 0 0 0 0 0 0 0 0 0 0 0 0.1 0"/>
<feBlend mode="normal" in2="BackgroundImageFix" result="effect1_dropShadow_1_2"/>
<feBlend mode="normal" in="SourceGraphic" in2="effect1_dropShadow_1_2" result="shape"/>
</filter>
<clipPath id="clip0_1_2">
<rect width="36" height="36" fill="white" transform="translate(354.574 118) rotate(15.4231)"/>
</clipPath>
<clipPath id="clip1_1_2">
<rect width="36" height="36" fill="white" transform="translate(365.254 682) rotate(26.8392)"/>
</clipPath>
<clipPath id="clip2_1_2">
<rect width="36" height="36" fill="white" transform="translate(-21 460.547) rotate(-25.5856)"/>
</clipPath>
<clipPath id="clip3_1_2">
<rect width="36" height="36" fill="white" transform="translate(256 19.5469) rotate(-25.5856)"/>
</clipPath>
<clipPath id="clip4_1_2">
<rect width="36" height="36" fill="white" transform="translate(-10 92)"/>
</clipPath>
</defs>
</svg>
