<svg width="64" height="45" viewBox="0 0 64 45" fill="none" xmlns="http://www.w3.org/2000/svg">
<path d="M24.7254 24.3015L19.9714 26.4317C19.2414 26.7593 18.5113 25.9773 18.8873 25.2726L29.3364 5.6812C29.7481 4.91078 30.9164 5.20142 30.9164 6.07563V41.6417C28.8347 42.2599 26.7679 42.9622 24.7254 43.7476V24.3015ZM38.6828 24.3015L43.4564 26.4686C44.1853 26.8008 44.9212 26.0177 44.5429 25.3107L34.0719 5.68005C33.6601 4.90963 32.4918 5.20142 32.4918 6.07448V41.6417C34.5747 42.2599 36.6392 42.9611 38.6828 43.7453V24.3015Z" fill="white"/>
<path d="M23.1571 30.9989V44.4293C20.4618 45.4316 17.7849 42.9093 18.6292 40.1609L21.5159 30.7521C21.7985 29.8318 23.1571 30.0359 23.1571 30.9989ZM44.798 40.1344L41.9031 30.7256C41.6194 29.8052 40.262 30.0094 40.262 30.9724V44.4166C42.9653 45.42 45.6457 42.8896 44.798 40.1344Z" fill="white"/>
<path d="M55.0271 0C59.6104 0 63.3253 2.18093 63.3253 4.87162C63.3253 7.56231 59.6104 9.74324 55.0271 9.74324H8.29813C3.71484 9.74324 0 7.56231 0 4.87162C0 2.18093 3.71484 0 8.29813 0H55.0271Z" fill="white"/>
</svg>
