<svg width="391" height="812" viewBox="0 0 391 812" fill="none" xmlns="http://www.w3.org/2000/svg">
<mask id="mask0_0_1" style="mask-type:alpha" maskUnits="userSpaceOnUse" x="-25" y="-105" width="490" height="423">
<path fill-rule="evenodd" clip-rule="evenodd" d="M-6.24718 -85.8568C36.2802 -125.731 154.917 -91.9014 212.9 -85.8568C264.965 -80.4291 382.522 -97.3681 422.967 -64.1341C470.379 -25.1747 454.098 58.8951 462.958 119.618C472.541 185.293 443.383 257.287 389.985 296.704C340.57 333.179 274.318 303.971 212.9 304.201C151.038 304.432 81.7977 337.888 34.4826 298.035C-14.0208 257.182 -9.16443 182.967 -6.24712 119.618C-3.50179 60.004 -49.7816 -45.0383 -6.24718 -85.8568Z" fill="#C4C4C4"/>
</mask>
<g mask="url(#mask0_0_1)">
<rect x="17.8965" y="-47.1341" width="375" height="812" fill="#7F01FC"/>
<rect x="17.8965" y="-47.1341" width="375" height="812" fill="black" fill-opacity="0.2"/>
</g>
<path d="M194.371 216.832L188.339 219.535C187.413 219.95 186.487 218.958 186.964 218.064L200.221 193.208C200.743 192.231 202.225 192.599 202.225 193.708V238.832C199.584 239.617 196.962 240.508 194.371 241.504V216.832ZM212.079 216.832L218.135 219.582C219.06 220.003 219.994 219.01 219.514 218.113L206.229 193.207C205.706 192.229 204.224 192.599 204.224 193.707V238.832C206.867 239.617 209.486 240.506 212.079 241.501V216.832Z" fill="white"/>
<path d="M192.379 225.329V242.369C188.96 243.641 185.564 240.44 186.635 236.953L190.297 225.016C190.656 223.849 192.379 224.108 192.379 225.329ZM219.836 236.92L216.163 224.983C215.803 223.815 214.081 224.074 214.081 225.296V242.353C217.511 243.626 220.911 240.416 219.836 236.92Z" fill="white"/>
<path d="M232.815 186C238.63 186 243.343 188.767 243.343 192.181C243.343 195.595 238.63 198.362 232.815 198.362H173.528C167.713 198.362 163 195.595 163 192.181C163 188.767 167.713 186 173.528 186H232.815Z" fill="white"/>
<g opacity="0.7" filter="url(#filter0_d_0_1)">
<g clip-path="url(#clip0_0_1)">
<path d="M389.077 144.473L385.946 138.958L385.946 138.957C385.18 137.607 383.457 137.131 382.106 137.898L354.379 153.634C354.287 153.686 354.207 153.759 354.147 153.847L347.29 163.815C347.137 164.037 347.125 164.327 347.257 164.561C347.391 164.796 347.648 164.933 347.914 164.915L359.988 164.139C360.095 164.132 360.198 164.102 360.29 164.049L388.017 148.313C389.344 147.597 389.849 145.768 389.077 144.473ZM381.208 150.561L377.816 144.584C377.816 144.584 377.816 144.583 377.816 144.583L376.685 142.591L378.52 141.55L383.043 149.519L381.208 150.561ZM360.792 162.147L361.005 160.201L379.201 149.874L379.985 151.255L360.792 162.147ZM375.462 143.286L376.246 144.666L358.05 154.993L356.269 154.178L375.462 143.286ZM376.94 145.889L378.507 148.651L360.262 159.006L358.175 158.364L358.695 156.244L376.94 145.889ZM354.971 155.131L357.263 156.18L356.652 158.674C356.563 159.036 356.772 159.404 357.128 159.514L359.583 160.268L359.309 162.774L353.434 163.152C353.351 162.535 353.149 161.931 352.843 161.391C352.536 160.851 352.121 160.368 351.634 159.981L354.971 155.131ZM350.835 161.143C351.467 161.671 351.896 162.428 352.026 163.242L349.269 163.419L350.835 161.143ZM387.323 147.09L384.266 148.825L379.743 140.856L382.8 139.121C383.477 138.737 384.34 138.975 384.723 139.652L387.854 145.167C388.239 145.812 387.985 146.734 387.323 147.09Z" fill="white"/>
</g>
</g>
<g filter="url(#filter1_d_0_1)">
<g clip-path="url(#clip1_0_1)">
<path d="M408.967 675.292L406.715 674.152L407.894 671.822C408.164 671.288 408.003 670.637 407.515 670.291C407.43 670.23 405.398 668.802 402.513 667.946C399.297 666.992 396.28 667.125 393.677 668.316C393.095 665.513 391.415 663.003 388.741 660.977C386.343 659.16 383.988 658.369 383.889 658.336C383.321 658.148 382.701 658.404 382.432 658.937L381.252 661.268L379 660.129C378.405 659.828 377.678 660.066 377.377 660.662L367.099 680.973C366.923 681.322 366.926 681.735 367.108 682.082C367.29 682.428 367.629 682.664 368.017 682.716C368.112 682.729 377.584 684.06 382.217 689.855C382.435 690.128 382.762 690.293 383.112 690.307C390.504 690.607 397.207 697.452 397.274 697.52C397.369 697.619 397.479 697.699 397.598 697.76C397.819 697.871 398.072 697.914 398.323 697.876C398.71 697.818 399.045 697.576 399.221 697.227L409.499 676.915C409.8 676.32 409.562 675.593 408.967 675.292ZM369.985 680.622L378.988 662.83L380.161 663.424L372.898 677.779C372.739 678.092 372.726 678.459 372.859 678.784C372.993 679.108 373.261 679.36 373.594 679.471C373.658 679.492 378.666 681.219 380.899 685.297C377.05 682.444 372.41 681.143 369.985 680.622ZM383.646 685.465C382.828 683.342 381.331 681.428 379.208 679.819C378.186 679.045 377.172 678.457 376.337 678.034C376.089 677.909 375.857 677.798 375.645 677.701L384.087 661.018L384.086 661.018C386.205 661.973 391.133 664.744 391.472 669.997L383.646 685.465ZM393.628 671.088C398.044 668.263 403.209 670.586 405.236 671.723L396.796 688.404C395.908 687.908 394.573 687.26 392.979 686.788C390.426 686.03 387.997 685.957 385.801 686.556L393.628 671.088ZM387.56 688.668C392.17 688.051 396.529 691.065 396.583 691.103C396.87 691.307 397.232 691.375 397.573 691.29C397.914 691.206 398.202 690.977 398.361 690.663L405.624 676.308L406.798 676.902L397.795 694.694C395.938 693.048 392.141 690.079 387.56 688.668Z" fill="#7F01FC"/>
</g>
</g>
<g opacity="0.7" filter="url(#filter2_d_0_1)">
<circle cx="25" cy="10" r="17" stroke="white" stroke-width="2" shape-rendering="crispEdges"/>
</g>
<g opacity="0.7" filter="url(#filter3_d_0_1)">
<g clip-path="url(#clip2_0_1)">
<path d="M300.567 -0.823213L298.291 0.266475L297.163 -2.08961C296.904 -2.62902 296.29 -2.89834 295.719 -2.7227C295.619 -2.6921 293.247 -1.95248 290.81 -0.188184C288.092 1.77865 286.358 4.25093 285.715 7.04097C283.138 5.79279 280.124 5.59381 276.889 6.47739C273.986 7.27016 271.923 8.65381 271.836 8.71235C271.341 9.04772 271.166 9.69498 271.424 10.2343L272.552 12.5904L270.276 13.6802C269.675 13.9682 269.42 14.6898 269.708 15.2915L279.539 35.8234C279.708 36.1762 280.037 36.4254 280.423 36.4921C280.808 36.5588 281.202 36.4347 281.48 36.1591C281.548 36.0917 288.379 29.3958 295.797 29.2578C296.147 29.2513 296.477 29.0934 296.701 28.8247C301.446 23.1485 310.959 22.0096 311.054 21.9988C311.19 21.9835 311.321 21.9457 311.441 21.888C311.665 21.781 311.853 21.6065 311.976 21.3843C312.166 21.0421 312.178 20.6294 312.009 20.2766L302.178 -0.255299C301.89 -0.856976 301.169 -1.11133 300.567 -0.823213ZM281.02 33.3222L272.409 15.3376L273.596 14.7696L280.543 29.2799C280.695 29.5966 280.977 29.8309 281.316 29.9231C281.655 30.0154 282.018 29.9557 282.309 29.7595C282.365 29.722 286.787 26.8058 291.381 27.5226C286.772 28.8339 282.912 31.7179 281.02 33.3222ZM293.189 25.4489C291.007 24.802 288.578 24.8214 286.008 25.5232C284.771 25.8608 283.687 26.3058 282.843 26.7099C282.592 26.8299 282.363 26.9463 282.157 27.0552L274.083 10.1914L274.082 10.1914C276.131 9.09427 281.333 6.87898 285.703 9.81313L293.189 25.4489ZM287.882 8.76987C288.336 3.54742 293.326 0.870347 295.464 -0.0429031L303.537 16.8182C302.603 17.2201 301.276 17.8827 299.929 18.8576C297.771 20.4196 296.233 22.3 295.369 24.4055L287.882 8.76987ZM298.114 24.2994C300.436 20.2693 305.484 18.6522 305.547 18.6327C305.883 18.5295 306.158 18.2848 306.299 17.9629C306.44 17.6408 306.434 17.2733 306.282 16.956L299.334 2.44578L300.521 1.87772L309.132 19.8621C306.695 20.3302 302.026 21.5296 298.114 24.2994Z" fill="white"/>
</g>
</g>
<g opacity="0.7" filter="url(#filter4_d_0_1)">
<g clip-path="url(#clip3_0_1)">
<path d="M186.074 97.8765L177.124 88.9274C175.888 87.6909 173.886 87.6907 172.65 88.9274L151.926 109.651C150.693 110.885 150.693 112.892 151.926 114.126L160.875 123.075C161.472 123.671 162.249 123.978 163.033 123.998V124H182.641V121.891H166.534L186.074 102.351C187.307 101.117 187.307 99.1102 186.074 97.8765ZM162.367 121.583L153.418 112.634C153.006 112.223 153.006 111.554 153.418 111.143L163.183 101.377L173.624 111.818L163.858 121.583C163.458 121.984 162.785 122.001 162.367 121.583ZM184.582 100.86L175.115 110.326L164.674 99.8858L174.141 90.4189C174.554 90.0067 175.221 90.0066 175.633 90.4189L184.582 99.368C184.993 99.7793 184.993 100.448 184.582 100.86Z" fill="white"/>
<path d="M173.69 93.8519L175.182 92.3606L182.638 99.8171L181.147 101.308L173.69 93.8519Z" fill="white" fill-opacity="0.3"/>
</g>
</g>
<g clip-path="url(#clip4_0_1)">
<path d="M119.567 795.177L117.291 796.266L116.163 793.91C115.904 793.371 115.29 793.102 114.719 793.277C114.619 793.308 112.247 794.047 109.81 795.812C107.092 797.779 105.358 800.251 104.715 803.041C102.138 801.793 99.1245 801.594 95.8887 802.477C92.9859 803.27 90.9227 804.654 90.8364 804.712C90.3411 805.048 90.1659 805.695 90.4241 806.234L91.5523 808.59L89.2762 809.68C88.6746 809.968 88.4203 810.69 88.7084 811.291L98.5393 831.823C98.7082 832.176 99.0374 832.425 99.423 832.492C99.8085 832.559 100.202 832.435 100.48 832.159C100.548 832.092 107.379 825.396 114.797 825.258C115.147 825.251 115.477 825.093 115.701 824.825C120.446 819.148 129.959 818.01 130.054 817.999C130.19 817.983 130.321 817.946 130.441 817.888C130.665 817.781 130.853 817.606 130.976 817.384C131.166 817.042 131.178 816.629 131.009 816.277L121.178 795.745C120.89 795.143 120.169 794.889 119.567 795.177ZM100.02 829.322L91.4093 811.338L92.5957 810.769L99.5434 825.28C99.695 825.596 99.9775 825.831 100.316 825.923C100.655 826.015 101.018 825.956 101.309 825.759C101.365 825.722 105.787 822.806 110.381 823.523C105.772 824.834 101.912 827.718 100.02 829.322ZM112.189 821.449C110.007 820.802 107.578 820.821 105.008 821.523C103.771 821.861 102.687 822.306 101.843 822.71C101.592 822.83 101.363 822.946 101.157 823.055L93.0825 806.191L93.0824 806.191C95.1313 805.094 100.333 802.879 104.703 805.813L112.189 821.449ZM106.882 804.77C107.336 799.547 112.326 796.87 114.464 795.957L122.537 812.818C121.603 813.22 120.276 813.883 118.929 814.858C116.771 816.419 115.233 818.3 114.369 820.405L106.882 804.77ZM117.114 820.299C119.436 816.269 124.484 814.652 124.547 814.633C124.883 814.529 125.158 814.285 125.299 813.963C125.44 813.641 125.434 813.273 125.282 812.956L118.334 798.446L119.521 797.878L128.132 815.862C125.695 816.33 121.026 817.529 117.114 820.299Z" fill="#7F01FC"/>
</g>
<g opacity="0.7" filter="url(#filter5_d_0_1)">
<g clip-path="url(#clip5_0_1)">
<path d="M34.5669 148.177L32.2908 149.266L31.1627 146.91C30.9044 146.371 30.2903 146.102 29.7186 146.277C29.6188 146.308 27.2472 147.048 24.8098 148.812C22.0925 150.779 20.3581 153.251 19.7148 156.041C17.1379 154.793 14.1245 154.594 10.8887 155.477C7.98591 156.27 5.92272 157.654 5.83639 157.712C5.34114 158.048 5.16591 158.695 5.42414 159.234L6.55225 161.59L4.2762 162.68C3.67458 162.968 3.42028 163.69 3.70839 164.291L13.5393 184.823C13.7082 185.176 14.0374 185.425 14.423 185.492C14.8085 185.559 15.2024 185.435 15.4799 185.159C15.5481 185.092 22.3787 178.396 29.7966 178.258C30.1467 178.251 30.4765 178.093 30.7011 177.825C35.4463 172.149 44.9592 171.01 45.0539 170.999C45.1902 170.984 45.3207 170.946 45.4412 170.888C45.6645 170.781 45.8527 170.607 45.9761 170.384C46.1658 170.042 46.1782 169.629 46.0092 169.277L36.1783 148.745C35.8901 148.143 35.1687 147.889 34.5669 148.177ZM15.0204 182.322L6.40927 164.338L7.59567 163.77L14.5434 178.28C14.695 178.597 14.9775 178.831 15.3161 178.923C15.6547 179.015 16.0177 178.956 16.3087 178.76C16.3646 178.722 20.7869 175.806 25.3811 176.523C20.7725 177.834 16.9124 180.718 15.0204 182.322ZM27.1894 174.449C25.0074 173.802 22.5778 173.821 20.008 174.523C18.7712 174.861 17.6868 175.306 16.8429 175.71C16.5923 175.83 16.3629 175.946 16.1571 176.055L8.08251 159.191L8.0824 159.191C10.1313 158.094 15.3328 155.879 19.7028 158.813L27.1894 174.449ZM21.882 157.77C22.336 152.547 27.3261 149.87 29.4639 148.957L37.5372 165.818C36.603 166.22 35.2758 166.883 33.9291 167.858C31.7711 169.42 30.2326 171.3 29.3685 173.406L21.882 157.77ZM32.1145 173.299C34.4364 169.269 39.4837 167.652 39.5469 167.633C39.8834 167.53 40.1575 167.285 40.2988 166.963C40.44 166.641 40.4339 166.273 40.282 165.956L33.3343 151.446L34.5207 150.878L43.1318 168.862C40.695 169.33 36.0262 170.53 32.1145 173.299Z" fill="white"/>
</g>
</g>
<path d="M0.81612 684.692L5.30049 689.176L5.30056 689.176C6.39902 690.275 8.18602 690.275 9.28433 689.176L31.828 666.633C31.9031 666.558 31.9604 666.467 31.9952 666.366L35.9544 654.933C36.0426 654.679 35.9776 654.396 35.7872 654.206C35.5964 654.015 35.3116 653.951 35.0599 654.039L23.6269 657.998C23.5263 658.033 23.435 658.09 23.3598 658.165L0.816119 680.708C-0.27221 681.751 -0.272282 683.649 0.81612 684.692ZM6.78235 676.731L11.6417 681.59C11.6419 681.591 11.6422 681.591 11.6424 681.591L13.2617 683.21L11.7702 684.702L5.29079 678.222L6.78235 676.731ZM23.382 660.132L23.6939 662.065L8.89959 676.859L7.77674 675.737L23.382 660.132ZM14.2561 682.216L13.1336 681.094L27.9279 666.299L29.8613 666.611L14.2561 682.216ZM12.1392 680.099L9.89385 677.854L24.7279 663.02L26.9103 663.083L26.9733 665.265L12.1392 680.099ZM30.8597 665.348L28.371 664.946L28.2967 662.379C28.286 662.007 27.9866 661.707 27.6142 661.696L25.0467 661.622L24.6452 659.134L30.2078 657.207C30.4514 657.779 30.8072 658.308 31.2462 658.747C31.6852 659.186 32.2137 659.542 32.7859 659.785L30.8597 665.348ZM33.2477 658.452C32.4979 658.111 31.8825 657.495 31.541 656.746L34.1519 655.841L33.2477 658.452ZM1.81052 681.703L4.29647 679.217L10.7759 685.696L8.29 688.182C7.73997 688.732 6.84478 688.732 6.29489 688.182L1.81052 683.698C1.26751 683.178 1.26765 682.222 1.81052 681.703Z" fill="#7F01FC"/>
<defs>
<filter id="filter0_d_0_1" x="335" y="126" width="68.2773" height="68.2776" filterUnits="userSpaceOnUse" color-interpolation-filters="sRGB">
<feFlood flood-opacity="0" result="BackgroundImageFix"/>
<feColorMatrix in="SourceAlpha" type="matrix" values="0 0 0 0 0 0 0 0 0 0 0 0 0 0 0 0 0 0 127 0" result="hardAlpha"/>
<feOffset dy="8"/>
<feGaussianBlur stdDeviation="6"/>
<feComposite in2="hardAlpha" operator="out"/>
<feColorMatrix type="matrix" values="0 0 0 0 0 0 0 0 0 0 0 0 0 0 0 0 0 0 0.1 0"/>
<feBlend mode="normal" in2="BackgroundImageFix" result="effect1_dropShadow_0_1"/>
<feBlend mode="normal" in="SourceGraphic" in2="effect1_dropShadow_0_1" result="shape"/>
</filter>
<filter id="filter1_d_0_1" x="353" y="649" width="72.376" height="72.3756" filterUnits="userSpaceOnUse" color-interpolation-filters="sRGB">
<feFlood flood-opacity="0" result="BackgroundImageFix"/>
<feColorMatrix in="SourceAlpha" type="matrix" values="0 0 0 0 0 0 0 0 0 0 0 0 0 0 0 0 0 0 127 0" result="hardAlpha"/>
<feOffset dy="8"/>
<feGaussianBlur stdDeviation="6"/>
<feComposite in2="hardAlpha" operator="out"/>
<feColorMatrix type="matrix" values="0 0 0 0 0 0 0 0 0 0 0 0 0 0 0 0 0 0 0.1 0"/>
<feBlend mode="normal" in2="BackgroundImageFix" result="effect1_dropShadow_0_1"/>
<feBlend mode="normal" in="SourceGraphic" in2="effect1_dropShadow_0_1" result="shape"/>
</filter>
<filter id="filter2_d_0_1" x="-5" y="-12" width="60" height="60" filterUnits="userSpaceOnUse" color-interpolation-filters="sRGB">
<feFlood flood-opacity="0" result="BackgroundImageFix"/>
<feColorMatrix in="SourceAlpha" type="matrix" values="0 0 0 0 0 0 0 0 0 0 0 0 0 0 0 0 0 0 127 0" result="hardAlpha"/>
<feOffset dy="8"/>
<feGaussianBlur stdDeviation="6"/>
<feComposite in2="hardAlpha" operator="out"/>
<feColorMatrix type="matrix" values="0 0 0 0 0 0 0 0 0 0 0 0 0 0 0 0 0 0 0.1 0"/>
<feBlend mode="normal" in2="BackgroundImageFix" result="effect1_dropShadow_0_1"/>
<feBlend mode="normal" in="SourceGraphic" in2="effect1_dropShadow_0_1" result="shape"/>
</filter>
<filter id="filter3_d_0_1" x="254" y="-12" width="72.0166" height="72.0168" filterUnits="userSpaceOnUse" color-interpolation-filters="sRGB">
<feFlood flood-opacity="0" result="BackgroundImageFix"/>
<feColorMatrix in="SourceAlpha" type="matrix" values="0 0 0 0 0 0 0 0 0 0 0 0 0 0 0 0 0 0 127 0" result="hardAlpha"/>
<feOffset dy="8"/>
<feGaussianBlur stdDeviation="6"/>
<feComposite in2="hardAlpha" operator="out"/>
<feColorMatrix type="matrix" values="0 0 0 0 0 0 0 0 0 0 0 0 0 0 0 0 0 0 0.1 0"/>
<feBlend mode="normal" in2="BackgroundImageFix" result="effect1_dropShadow_0_1"/>
<feBlend mode="normal" in="SourceGraphic" in2="effect1_dropShadow_0_1" result="shape"/>
</filter>
<filter id="filter4_d_0_1" x="139" y="84" width="60" height="60" filterUnits="userSpaceOnUse" color-interpolation-filters="sRGB">
<feFlood flood-opacity="0" result="BackgroundImageFix"/>
<feColorMatrix in="SourceAlpha" type="matrix" values="0 0 0 0 0 0 0 0 0 0 0 0 0 0 0 0 0 0 127 0" result="hardAlpha"/>
<feOffset dy="8"/>
<feGaussianBlur stdDeviation="6"/>
<feComposite in2="hardAlpha" operator="out"/>
<feColorMatrix type="matrix" values="0 0 0 0 0 0 0 0 0 0 0 0 0 0 0 0 0 0 0.1 0"/>
<feBlend mode="normal" in2="BackgroundImageFix" result="effect1_dropShadow_0_1"/>
<feBlend mode="normal" in="SourceGraphic" in2="effect1_dropShadow_0_1" result="shape"/>
</filter>
<filter id="filter5_d_0_1" x="-12" y="137" width="72.0166" height="72.0168" filterUnits="userSpaceOnUse" color-interpolation-filters="sRGB">
<feFlood flood-opacity="0" result="BackgroundImageFix"/>
<feColorMatrix in="SourceAlpha" type="matrix" values="0 0 0 0 0 0 0 0 0 0 0 0 0 0 0 0 0 0 127 0" result="hardAlpha"/>
<feOffset dy="8"/>
<feGaussianBlur stdDeviation="6"/>
<feComposite in2="hardAlpha" operator="out"/>
<feColorMatrix type="matrix" values="0 0 0 0 0 0 0 0 0 0 0 0 0 0 0 0 0 0 0.1 0"/>
<feBlend mode="normal" in2="BackgroundImageFix" result="effect1_dropShadow_0_1"/>
<feBlend mode="normal" in="SourceGraphic" in2="effect1_dropShadow_0_1" result="shape"/>
</filter>
<clipPath id="clip0_0_1">
<rect width="36" height="36" fill="white" transform="translate(356.574 130) rotate(15.4231)"/>
</clipPath>
<clipPath id="clip1_0_1">
<rect width="36" height="36" fill="white" transform="translate(381.254 653) rotate(26.8392)"/>
</clipPath>
<clipPath id="clip2_0_1">
<rect width="36" height="36" fill="white" transform="translate(266 7.54694) rotate(-25.5856)"/>
</clipPath>
<clipPath id="clip3_0_1">
<rect width="36" height="36" fill="white" transform="translate(151 88)"/>
</clipPath>
<clipPath id="clip4_0_1">
<rect width="36" height="36" fill="white" transform="translate(85 803.547) rotate(-25.5856)"/>
</clipPath>
<clipPath id="clip5_0_1">
<rect width="36" height="36" fill="white" transform="translate(0 156.547) rotate(-25.5856)"/>
</clipPath>
</defs>
</svg>
