<svg width="217" height="162" viewBox="0 0 217 162" fill="none" xmlns="http://www.w3.org/2000/svg">
<path d="M84.72 88.27L68.43 95.57C67.8805 95.8162 67.2677 95.884 66.6777 95.7639C66.0877 95.6438 65.5502 95.3417 65.1407 94.9003C64.7313 94.4588 64.4705 93.9001 64.395 93.3028C64.3195 92.7054 64.4332 92.0994 64.72 91.57L100.52 24.45C100.819 23.8812 101.301 23.4293 101.887 23.1667C102.474 22.9041 103.131 22.8459 103.755 23.0015C104.378 23.1571 104.932 23.5174 105.326 24.0248C105.72 24.5323 105.933 25.1573 105.93 25.8V147.68C98.7967 149.8 91.7267 152.207 84.72 154.9V88.27ZM132.54 88.27L148.9 95.69C149.45 95.9468 150.067 96.0227 150.663 95.9066C151.259 95.7906 151.803 95.4886 152.216 95.0441C152.629 94.5996 152.891 94.0354 152.964 93.4328C153.036 92.8301 152.916 92.2199 152.62 91.69L116.74 24.46C116.441 23.8912 115.959 23.4393 115.373 23.1767C114.786 22.9141 114.129 22.8559 113.505 23.0115C112.882 23.1671 112.328 23.5274 111.934 24.0348C111.54 24.5423 111.327 25.1673 111.33 25.81V147.68C118.47 149.8 125.54 152.203 132.54 154.89V88.27Z" fill="#7F01FC"/>
<path d="M79.34 111.21V157.21C77.2619 157.982 75.0096 158.157 72.8371 157.716C70.6647 157.275 68.6587 156.236 67.0457 154.716C65.4327 153.195 64.2768 151.254 63.7086 149.111C63.1404 146.969 63.1824 144.71 63.83 142.59L73.72 110.35C73.918 109.686 74.3495 109.116 74.9347 108.746C75.52 108.375 76.2196 108.229 76.9044 108.333C77.5892 108.438 78.213 108.787 78.6606 109.316C79.1083 109.845 79.3496 110.517 79.34 111.21ZM153.49 142.51L143.57 110.28C143.372 109.618 142.943 109.049 142.359 108.679C141.776 108.308 141.079 108.16 140.396 108.263C139.712 108.365 139.089 108.71 138.64 109.235C138.19 109.76 137.945 110.429 137.95 111.12V157.19C140.035 157.964 142.295 158.139 144.474 157.695C146.654 157.251 148.666 156.207 150.282 154.68C151.899 153.152 153.056 151.203 153.623 149.053C154.19 146.902 154.144 144.636 153.49 142.51Z" fill="#7F01FC"/>
<path d="M188.54 5H111.33V38.38H188.54C204.25 38.38 216.98 30.91 216.98 21.69C216.98 12.47 204.25 5 188.54 5Z" fill="#7F01FC"/>
<path d="M105.93 5H28.43C12.73 5 0 12.47 0 21.69C0 30.91 12.73 38.38 28.43 38.38H105.93V5Z" fill="#7F01FC"/>
</svg>
