<svg width="30" height="28" viewBox="0 0 30 28" fill="none" xmlns="http://www.w3.org/2000/svg">
<path d="M7.52573 0.137029C6.02058 0.645525 4.91424 1.63644 4.21955 3.07066C3.82075 3.89208 3.79503 4.0355 3.79503 5.31326C3.79503 6.57798 3.82075 6.74748 4.20669 7.55585C4.77273 8.76842 5.62178 9.64199 6.76672 10.2157C7.61578 10.6459 7.79588 10.6851 8.90223 10.7111L10.0986 10.7242L10.1887 9.90276C10.3045 8.85969 10.4717 8.33816 11.0249 7.24293C11.5909 6.14771 12.5815 5.0916 13.5463 4.53096C14.3825 4.06157 14.3696 4.07461 13.8036 2.86205C13.3662 1.91025 12.3499 0.932369 11.3336 0.436911C10.6003 0.0979137 10.3173 0.0327219 9.26244 0.00664523C8.50343 -0.0194315 7.84734 0.0327219 7.52573 0.137029Z" fill="#7F01FC"/>
<path d="M16.3379 4.43969C15.2187 4.8178 14.3053 5.4306 13.4434 6.3824C12.2084 7.72535 11.7067 9.0683 11.7067 10.9849C11.7067 12.3279 11.9125 13.2145 12.5172 14.3619C13.4305 16.096 15.5017 17.5563 17.4571 17.8301C20.5832 18.2603 23.3362 16.7088 24.7127 13.723C25.0986 12.9146 25.1372 12.6669 25.1887 11.3631C25.253 9.72022 25.0214 8.67715 24.3525 7.49066C23.5163 6.05644 21.8439 4.75261 20.2616 4.34842C19.1166 4.0355 17.3671 4.08765 16.3379 4.43969Z" fill="#7F01FC"/>
<path d="M3.7693 10.7111C1.87822 12.1193 0.553173 14.2967 0.0900515 16.7479L0 17.1782H2.37993L5.66038 13.8534L6.98542 15.1963L8.31046 16.5262L9.00515 15.8091C9.39108 15.4049 9.98285 14.8965 10.3173 14.6618C10.6518 14.4271 10.9348 14.1533 10.9348 14.0359C10.9348 13.9186 10.8448 13.4231 10.729 12.9277L10.536 12.028H9.03087C7.2813 12.028 6.68954 11.8194 5.31304 10.7633L4.51544 10.1505L3.7693 10.7111Z" fill="#7F01FC"/>
<path d="M3.01029 18.5081C0.566038 20.8941 0.591767 20.7767 2.34134 20.8159L3.19039 20.8289L3.58919 22.1067C4.28388 24.3884 5.62178 26.0182 7.6801 27.0743C8.15609 27.309 10.0729 28 10.2659 28C10.3173 28 9.99571 27.6349 9.55832 27.1916C9.12093 26.7353 8.59348 26.0703 8.37478 25.7183C7.80875 24.8186 7.33276 23.1888 7.24271 21.9241L7.16552 20.855L9.73842 20.6724L7.53859 18.5342C6.32933 17.3607 5.31304 16.3959 5.27444 16.3959C5.22298 16.3959 4.21955 17.3477 3.01029 18.5081Z" fill="#7F01FC"/>
<path d="M11.8096 17.6867C10.1629 18.808 10.1758 18.6385 11.6938 20.2943C12.4014 21.0766 12.9931 21.7416 12.9931 21.7937C12.9931 21.8329 12.0412 21.872 10.8705 21.872H8.74786V22.1849C8.74786 22.8107 9.40394 24.597 9.91852 25.3923C10.2787 25.9399 10.819 26.4745 11.6038 27.1004L12.7616 28H30L29.9228 26.8526C29.5883 22.5109 28.1089 19.7467 24.97 17.5824L24.2238 17.0608L23.5292 17.6475C22.6158 18.4168 21.741 18.9123 20.7118 19.2643C19.5283 19.6685 17.3928 19.6685 16.2093 19.2643C15.1286 18.8992 14.2024 18.3516 13.4048 17.6345L12.7616 17.0478L11.8096 17.6867Z" fill="#7F01FC"/>
</svg>
